<svg width="134" height="133" viewBox="0 0 134 133" fill="none" xmlns="http://www.w3.org/2000/svg">
<path opacity="0.4" d="M9.8439 71.0454C10.4744 73.702 10.632 70.4125 11.1601 70.8032C11.0025 70.0999 11.0655 68.5919 10.7345 69.3107C10.9487 68.9214 11.0471 68.4797 11.0182 68.0371C11.0227 67.5144 10.9885 66.9921 10.9158 66.4744C10.6814 65.514 10.7474 64.5056 11.1049 63.5833C11.0182 63.5052 10.6557 64.3647 10.4981 63.2942C10.4551 62.8173 10.5566 62.3385 10.7897 61.919C10.9611 61.7184 11.1116 61.5011 11.2389 61.2705C11.1241 60.7579 11.0842 60.2316 11.1207 59.7077C11.1207 59.0827 11.2389 58.5513 11.2862 58.6763C11.231 57.5981 10.1986 59.6374 10.0567 58.1138C9.58382 56.9964 10.4192 55.7696 10.4981 54.5585C11.2232 53.2615 10.4981 56.0197 10.569 56.637L10.8606 54.6367C10.9473 53.9725 11.1049 53.3162 11.2232 52.652C11.8379 51.5972 11.6724 53.324 11.2941 54.4413C11.6797 53.7099 11.9306 52.9161 12.0349 52.0972C12.1664 51.5208 12.1446 50.9204 11.9719 50.3548C12.2267 49.5601 12.5621 48.793 12.9728 48.0654C12.9019 49.0499 13.761 49.2843 13.4615 50.7064C12.6733 52.9567 13.0832 49.675 12.3344 51.5737L12.7837 51.8941C12.2635 52.6754 12.4763 53.4568 12.2635 54.3397C12.0034 54.8086 12.1138 54.1835 12.1295 53.8241C11.9088 54.6445 11.7197 55.3868 11.5699 56.0666C11.3926 56.735 11.3926 57.4375 11.5699 58.1059C11.6724 57.8325 11.7591 57.5434 11.8458 57.2464C11.9325 56.9495 12.0271 56.637 12.1059 56.3166C12.2714 55.6915 12.3738 55.0274 12.5157 54.4179C12.8231 53.199 13.0595 52.1207 13.5245 51.7534L13.8555 49.5031L14.2969 47.2606C14.0683 47.159 13.1383 48.5107 13.2566 47.1668C14.0447 46.8855 14.8328 45.7682 15.621 44.2132C14.7146 44.5101 16.3067 41.4316 15.4318 41.9707C15.4221 42.219 15.335 42.4582 15.1826 42.6555C15.0302 42.8527 14.8199 42.9984 14.5806 43.0724C15.3057 41.5097 14.1156 42.588 14.5097 41.7129C15.2979 40.3064 15.4003 40.408 15.4712 40.4939C15.5422 40.5799 15.6604 40.6814 16.5116 39.3844C16.4697 39.9635 16.396 40.54 16.2909 41.1112C16.1748 41.9258 16.0064 42.7323 15.7865 43.5256C16.1175 43.5256 16.4801 41.9629 17.1263 41.5253C16.3382 42.2286 16.8978 40.6189 16.3382 41.2597C17.2446 38.9156 18.1667 36.0948 19.8375 33.5163C20.0976 34.0086 19.5381 35.1728 19.0494 36.1808C18.5608 37.1887 18.3716 38.1186 19.1125 38.0326C19.7351 36.7199 19.3568 36.4699 20.0819 35.54C20.7353 35.0869 21.2746 34.4907 21.6582 33.7976C21.934 33.3913 22.2177 32.9459 22.5015 32.5005C22.7879 32.0695 23.0984 31.6548 23.4315 31.2582L22.6433 31.7348C23.1718 30.8466 23.8487 30.0539 24.6452 29.3907L24.5822 29.6485L25.0393 28.8672C25.1575 28.789 25.1969 28.789 25.2284 28.8125C25.6383 27.8826 27.5929 26.359 28.846 25.015C28.6884 24.8353 28.3258 25.1166 27.9475 25.5464C27.6008 25.9903 27.2242 26.4106 26.8205 26.8044C26.6944 26.8512 26.2846 27.1247 25.9535 27.2966C25.6225 27.4685 25.3782 27.5467 25.5437 27.1169C26.295 26.3628 26.9903 25.5559 27.6244 24.7025C28.3551 23.8239 29.165 23.0132 30.044 22.2802C29.7918 22.4053 29.5396 22.5459 29.2559 22.6944C29.6815 21.913 30.7218 21.327 31.6991 20.5222C32.7316 19.9987 32.4872 20.3815 32.1483 20.8191C31.8094 21.2567 31.4154 21.7958 32.038 21.4833C31.6045 22.3818 30.0755 22.9366 30.2962 23.5773C30.8006 23.4523 31.3208 23.3507 31.8252 23.2491C32.165 22.7566 32.6336 22.3649 33.1808 22.1162C33.6526 21.9312 34.0999 21.6898 34.5128 21.3973L33.6222 21.6551C33.4567 21.116 34.363 20.9754 34.7334 20.8035L33.8113 20.4987C33.3234 20.8008 32.8871 21.178 32.5188 21.6161C32.2276 21.9971 31.8175 22.2718 31.3523 22.3975C31.8733 21.8901 32.3287 21.3206 32.7079 20.7019C33.1958 20.0111 33.8207 19.4262 34.5443 18.9829C34.8123 19.1626 34.1502 19.3736 34.0478 19.7642C34.5371 19.5458 34.9891 19.2532 35.3876 18.8969C35.8446 18.4377 36.3778 18.0598 36.9639 17.7796C36.3019 18.4203 35.2615 19.4361 36.4358 19.186L36.8299 18.2484C37.4762 17.9437 37.3501 18.3109 37.618 18.1781C38.5559 17.7796 37.1136 17.7639 38.5875 17.1076C38.8475 17.1076 39.3756 16.9513 39.2337 17.1779C40.8652 16.334 39.9273 16.6075 41.3381 15.5683C39.9588 16.2559 39.4938 15.498 40.9125 14.6775C43.0247 13.7712 44.3094 12.7085 46.0591 12.857L46.8866 12.1303C46.4452 12.857 48.3289 11.8568 49.054 11.724C49.2589 11.974 48.4392 12.2397 47.6117 12.5522C46.7841 12.8648 45.9724 13.3336 46.1379 13.7555C47.5565 13.318 47.0521 13.8337 46.7053 14.2556C48.1555 13.6071 47.0206 13.3805 47.5565 12.771C47.6432 13.0054 50.1968 11.9896 49.4481 12.771C50.7564 12.3959 50.8273 11.7709 51.8125 11.599C51.7502 11.7407 51.7181 11.8936 51.7181 12.0482C51.7181 12.2028 51.7502 12.3558 51.8125 12.4975C51.8755 12.2631 53.176 12.1772 53.3888 12.1615C53.1366 12.099 53.7356 11.5599 52.6006 11.9818C52.774 11.4505 55.3118 11.3645 55.17 10.9817C55.2803 11.2317 55.9581 11.1614 56.6832 11.0207L57.8812 10.7941C58.2431 10.7342 58.6101 10.7107 58.9767 10.7238C58.8348 10.0987 58.2674 10.2628 57.6842 10.5207C57.1009 10.7785 56.4862 11.0676 56.1867 10.5754C57.763 9.794 61.7037 9.7393 64.4307 9.10639C66.7951 9.29392 64.4307 9.59865 64.9351 10.0597C64.4881 10.1189 64.0382 10.1528 63.5873 10.1612H62.5706C61.8527 10.1468 61.1357 10.2177 60.4348 10.3722C60.9392 10.3722 61.5303 10.3722 62.145 10.3722C62.7598 10.3722 63.4061 10.2628 64.0445 10.2394C65.1222 10.1713 66.1939 10.0304 67.2522 9.81744C69.4826 9.81744 69.6166 11.1848 72.2806 11.0911C71.9732 10.6457 72.0441 10.5285 71.2245 10.3097C71.9991 10.2983 72.7721 10.3822 73.5258 10.5597C74.0302 10.3566 72.3751 10.0987 73.4707 9.99715C73.8805 10.13 74.7632 10.2941 74.5504 10.5519H74.3691C75.1149 10.4924 75.8564 10.7096 76.4498 11.1614C76.714 11.3503 77.0179 11.4773 77.3387 11.5327C77.6596 11.5882 77.9889 11.5708 78.302 11.4818C78.168 11.2395 77.6557 11.388 77.1592 11.1536C76.8045 10.7473 78.231 10.5832 79.2714 10.6769C79.0271 10.927 80.1462 10.9035 80.8477 11.2005C81.0211 11.4974 80.5797 11.4114 80.0595 11.2864C79.6089 11.1465 79.1338 11.1012 78.6645 11.1536C79.3029 11.3333 79.9413 11.4583 80.5639 11.6771L80.1856 11.4896L82.3767 11.6146C80.8871 11.3645 81.8329 10.8332 82.4949 10.9739C83.9293 11.4739 85.3322 12.0756 84.9933 12.5366C85.3401 12.06 87.0898 12.7554 88.3823 13.1148C87.0819 12.4272 88.3823 12.6226 88.8394 12.6304L90.6443 13.9978C88.469 13.2164 90.8965 14.6307 90.2502 14.7401C89.7589 14.8272 89.2524 14.7356 88.8237 14.4822C88.5636 14.3572 88.2956 14.2087 88.0355 14.0681L87.208 13.6696C87.8808 14.3388 88.7605 14.7652 89.7064 14.8807C90.1079 14.9324 90.5055 15.0107 90.8965 15.1151C91.3368 15.2506 91.7444 15.474 92.0945 15.7715C91.992 15.9902 91.7004 16.17 90.9359 15.7246C91.2893 15.9342 91.6799 16.0748 92.0866 16.1387C92.7412 16.2948 93.3524 16.5938 93.8757 17.0138C93.6471 16.6935 93.19 15.8652 94.4983 16.3653L95.7751 17.7718C97.4775 19.0063 96.713 17.5999 98.3523 18.2953L97.5642 17.3264C97.777 17.1467 98.2893 17.467 98.7858 17.7718C99.2823 18.0765 99.7473 18.4125 99.9365 18.1781C99.0459 17.5061 98.2499 17.5999 97.3671 16.8263C97.2883 16.1074 98.7858 17.3498 99.5188 17.4592C100.071 17.9087 100.597 18.3887 101.095 18.8969C101.371 19.2095 101.576 19.483 102.143 20.2253C101.891 20.6081 101.174 20.3503 100.417 20.2253C99.6606 20.1002 98.9592 19.9987 98.7858 20.5847C100.748 21.6864 103.444 23.5929 104.303 24.8275C105.974 25.9917 106.305 25.3901 106.439 24.8275C106.94 25.1889 107.363 25.6458 107.684 26.1715L106.785 25.7104C107.818 26.4918 108.582 27.1247 109.371 27.7811C110.229 28.526 111.021 29.3444 111.735 30.2267C112.823 31.305 112.838 30.5159 112.941 29.9455L114.044 31.2191L113.973 30.9456C114.312 30.9456 114.675 31.2347 115.037 31.6723C115.4 32.1098 115.715 32.6959 116.038 33.1647C115.841 33.3053 115.4 32.774 115.313 32.9147C115.788 33.9171 116.436 34.8294 117.228 35.6104C117.126 35.6729 116.866 35.6104 116.574 35.4463C116.22 35.1418 115.946 34.7553 115.778 34.3211C115.778 34.1883 115.865 34.1883 115.849 34.0555L114.454 32.6099C115.082 33.2579 115.566 34.0301 115.873 34.8759C116.062 35.4932 115.959 35.9386 115.707 36.0714C117.15 37.8295 115.242 34.1727 116.858 36.3449C116.968 36.7835 117.107 37.2142 117.276 37.6341C117.433 38.0482 117.599 38.4155 117.78 38.814C118.127 39.5953 118.568 40.2283 118.883 40.9002C119.199 41.5102 119.463 42.1454 119.672 42.799C119.845 43.399 119.845 44.0351 119.672 44.6352L120.46 45.7056C120.728 46.0807 120.98 46.487 121.248 46.9324C121.516 47.3778 121.784 47.8466 122.036 48.3623C122.286 48.9157 122.507 49.4817 122.698 50.0579C122.934 49.9797 123.116 50.3782 123.297 50.7376C123.478 51.0971 123.628 51.4487 123.896 51.2377C123.781 50.0579 123.378 48.9235 122.722 47.9325C122.084 47.0707 121.722 46.0392 121.681 44.9712C121.027 44.0335 120.799 44.5492 120.357 44.1898C120.159 43.7945 119.993 43.3843 119.861 42.963C119.742 42.6114 119.711 42.3379 119.813 42.1817C120.468 43.1349 120.751 43.174 121.098 43.2678C121.445 43.3615 121.76 43.5725 122.359 44.9165C122.383 44.3458 122.252 43.7793 121.981 43.2756L121.532 42.1817C121.374 41.8301 121.232 41.5175 121.138 41.2597C121.476 41.4472 121.579 41.0409 121.437 40.3298C121.885 40.7017 122.297 41.1151 122.667 41.5644C123.092 42.0723 123.502 42.6114 123.841 42.963C123.51 42.7599 123.62 43.3537 123.392 43.1662C123.699 43.6038 124.038 44.0335 124.329 44.4867L125.22 45.8541C125.275 46.8777 125.031 47.2371 124.597 46.8386C124.842 47.6747 125.283 48.7608 125.638 49.6515C125.992 50.5423 126.126 51.2846 125.78 51.3784C126.473 53.5193 126.016 50.597 126.166 50.3235L126.253 50.5032C126.032 49.7219 125.74 48.9952 125.464 48.2373C125.827 47.9716 125.992 48.6436 126.166 49.3859C126.339 50.1282 126.489 50.9486 126.954 51.0424C127.742 51.0424 127.86 51.8863 127.829 52.9411C127.664 53.9777 127.678 55.0344 127.868 56.0666C127.38 55.4962 126.867 54.9414 126.379 54.4023L126.97 55.965C126.339 55.1133 125.622 55.2618 124.873 53.9647C125.086 55.0664 125.315 56.4104 125.433 57.6606C125.504 58.2857 125.591 58.8873 125.661 59.4108C125.701 59.8636 125.775 60.3129 125.882 60.7548C125.575 61.3564 125.244 61.6377 124.842 61.4346C125.066 61.8945 125.197 62.3936 125.228 62.9035C125.253 63.3346 125.229 63.767 125.157 64.1928C124.973 65.0368 124.854 65.8936 124.802 66.7557C125.267 68.7638 125.323 64.7163 125.906 66.1696C125.63 66.7947 125.906 67.8965 125.992 68.4591C125.915 67.8572 125.915 67.2481 125.992 66.6463C126.063 65.8649 126.205 64.9117 126.221 64.1615C126.292 65.2789 126.812 65.1304 127.049 65.4352C127.088 64.8023 127.049 64.1694 127.049 63.5364C127.388 63.5755 127.443 64.1615 127.466 64.8413C127.407 65.4791 127.447 66.1221 127.585 66.7479C126.97 66.1931 126.954 66.5056 126.339 65.9665C126.669 67.767 126.602 69.6169 126.142 71.3892C125.835 72.1706 125.906 70.6938 125.725 70.2484C125.323 70.6 125.882 71.8658 125.346 72.1471C124.984 71.8736 125.386 71.1626 125.299 70.5844C125.133 72.1471 124.984 73.7098 124.708 75.2101C124.463 75.2101 124.542 74.0224 124.708 73.3113C124.496 73.9298 124.394 74.5804 124.408 75.2335C124.473 75.9909 124.626 76.7383 124.865 77.4604C124.655 78.1894 124.392 78.9023 124.077 79.5935C123.794 80.1405 123.549 80.3749 123.431 80.1092C123.431 80.8515 123.746 80.4296 123.991 80.4765C123.423 82.5393 124.148 82.969 123.841 84.2427L124.534 83.4066C123.526 85.321 125.165 84.0942 124.282 85.8054C124.093 85.6084 123.848 85.4719 123.58 85.4134C123.312 85.3549 123.032 85.3772 122.777 85.4772C123.132 85.907 122.383 86.8993 122.131 87.6494C122.753 87.3369 121.934 89.4153 122.84 88.3605C122.7 89.1333 122.445 89.8812 122.083 90.5796C121.767 91.1356 121.596 91.7616 121.587 92.4001C122.075 91.6188 121.39 94.1035 121.997 93.5488C121.248 95.2443 120.168 96.1038 119.94 95.4241C120.247 94.8771 120.877 94.0645 120.491 93.9629C120.018 94.9552 119.609 95.9788 119.08 96.9399C118.466 97.5337 117.859 98.3932 117.331 98.2292C117.331 99.4403 115.376 100.573 115.502 101.659C115.76 100.868 116.297 100.197 117.016 99.7685L116.834 100.261C116.885 100.187 116.941 100.117 117 100.05C117 100.62 117.039 101.206 117 101.777C118.064 100.815 116.614 101.23 117.654 99.5887C118.481 99.1043 118.261 100.089 118.001 101.066C117.741 102.042 117.402 102.972 118.15 102.386C119.167 101.284 118.316 101.042 118.679 99.8466L118.489 100.104C118.883 99.2762 119.199 98.4089 119.522 97.5572C119.853 97.5962 119.664 98.4401 119.664 98.4401C120.066 97.7134 120.412 97.1587 120.728 96.682C121.043 96.2054 121.287 95.7835 121.563 95.3694C121.839 94.9552 122.138 94.5333 122.438 94.002C122.737 93.4706 123.061 92.8455 123.447 92.0329C123.234 92.2282 122.107 92.4939 122.596 90.9937C122.777 89.8529 123.336 89.931 123.723 89.0637C123.628 89.6263 123.928 90.2905 123.344 90.8843L123.959 91.064C123.857 91.8461 123.897 92.64 124.077 93.4081C124.148 93.9316 124.156 94.5645 123.415 96.2992C123.589 96.4789 123.415 97.2212 123.084 98.1276C122.669 99.1131 122.165 100.06 121.579 100.956C121.878 100.745 122.154 100.519 122.438 100.3C122.28 101.448 122.06 101.441 121.815 101.495C121.571 101.55 121.264 101.659 120.83 103.011C120.499 103.136 120.137 103.308 119.766 103.464C119.422 103.602 119.07 103.717 118.71 103.808C118.08 103.933 117.662 103.808 117.796 102.988C117.314 103.531 116.911 104.139 116.598 104.793C116.297 105.403 115.938 105.984 115.526 106.527C114.352 106.91 115.242 105.652 114.572 105.379C114.245 105.855 113.968 106.363 113.745 106.895C113.571 107.301 113.603 107.527 114.052 107.316L112.342 108.879C112.192 108.825 112.72 108.199 112.941 107.965C112.526 108.359 112.173 108.812 111.893 109.309C111.607 109.706 111.376 110.14 111.207 110.598C111.309 110.434 111.625 109.934 111.877 109.817C111.317 110.615 110.842 111.469 110.458 112.364C111.175 111.083 111.837 111.544 112.531 110.145C112.594 110.362 112.584 110.594 112.503 110.805C112.422 111.016 112.274 111.196 112.082 111.317C113.256 110.715 113.989 109.7 114.691 109.614C114.403 109.799 114.157 110.04 113.966 110.322C113.775 110.604 113.644 110.921 113.579 111.255C114.454 110.477 115.197 109.564 115.778 108.551C116.487 108.95 117.93 105.535 117.812 107.027C117.756 106.855 117.946 106.504 118.214 106.113C118.457 105.725 118.751 105.37 119.088 105.058C119.207 105.191 119.041 105.66 118.828 106.223C118.585 106.746 118.382 107.286 118.221 107.84C116.204 111.075 117.804 107.418 117.063 107.965C116.779 108.348 116.511 108.746 116.212 109.106L115.305 110.215C115.581 110.067 114.982 111.45 116.164 109.997C116.013 110.633 115.746 111.237 115.376 111.778C114.949 112.436 114.385 112.996 113.721 113.419C113.658 113.833 114.375 113.013 114.62 112.778C114.564 113.169 113.887 115.122 115.636 113.435C115.14 113.911 116.164 112.325 115.116 113.052C115.707 112.27 117.63 110.504 117.299 111.583C118.001 110.622 119.065 108.653 119.577 107.84C120.034 107.84 119.199 108.582 119.041 109.075L119.987 107.668L120.87 106.223L119.995 106.785C120.708 105.975 121.244 105.028 121.571 104.003C121.87 103.066 122.075 102.159 122.462 101.253C122.864 101.8 122.052 103.222 121.673 104.504C122.966 103.863 121.776 103.589 122.942 101.909C123.187 101.737 123.352 101.753 123.447 101.964L123.77 100.261C124.062 99.8778 124.054 100.183 123.983 100.378C124.361 98.9871 124.156 98.9011 124.054 98.7292C123.951 98.5573 123.943 98.3073 124.629 96.5805C123.376 98.4323 124.188 98.4792 123.226 100.104C122.296 100.823 123.581 97.8541 123.533 97.2368C124.448 95.6741 125.433 95.9163 125.898 93.6035C125.535 95.1662 126.434 93.9004 125.504 96.0101C125.22 97.3071 126.071 95.5256 126.481 95.4162C126.623 94.8068 125.693 95.51 126.481 93.9941L126.544 94.0879L126.773 92.6893L126.946 91.2672C127.255 90.6688 127.501 90.0404 127.679 89.3919C127.845 88.7277 127.979 88.0323 128.12 87.376C128.262 86.7196 128.381 86.0867 128.53 85.5163C128.655 85.0029 128.877 84.5176 129.184 84.0864L128.444 84.313C128.641 83.5316 128.814 82.5862 128.98 81.6954C129.058 81.25 129.129 80.8203 129.2 80.4296C129.271 80.0389 129.279 79.6873 129.295 79.3982C129.477 79.684 129.552 80.0241 129.508 80.3593C129.508 80.8047 129.413 81.3516 129.358 81.922C129.988 79.5243 130.106 77.0227 129.705 74.5772C129.289 75.485 128.921 76.4135 128.601 77.3588C128.465 77.0282 128.408 76.6712 128.432 76.3151C128.457 75.9589 128.563 75.613 128.743 75.3038C129.163 74.5693 129.327 73.7178 129.208 72.8816C129.854 72.8816 129.697 73.663 130.367 73.1082C130.198 72.5025 130.113 71.8769 130.114 71.2485C130.091 70.5918 129.996 69.9394 129.831 69.3029C130.146 69.006 130.438 69.1232 130.619 69.6311C130.892 70.4835 130.986 71.3824 130.895 72.2721C130.248 74.0927 130.942 76.2571 130.209 77.7417C130.39 77.4526 130.564 77.1635 130.729 76.8666C130.699 77.6776 130.623 78.4863 130.501 79.2888C130.414 80.0077 130.351 80.7031 130.311 81.5235L130.233 81.4376L130.69 82.3674L130.879 81.5001C131.147 82.5352 131.237 83.6076 131.147 84.6724C131.401 83.7652 131.384 82.8045 131.1 81.9064C130.839 81.3386 130.61 80.7569 130.414 80.1639C130.612 79.2237 130.944 78.3161 131.399 77.4682C131.763 76.7967 131.888 76.0232 131.754 75.2726C132.077 75.1788 132.542 73.8349 132.707 74.96C132.707 76.3587 132.203 77.3041 132.621 77.4682C132.77 76.0149 132.975 76.6009 133.149 74.3818C132.605 73.9052 132.211 72.2174 131.817 70.6469C131.648 69.7472 131.555 68.835 131.541 67.9199C131.509 67.138 131.53 66.3549 131.604 65.5758C131.645 66.3208 131.788 67.0568 132.03 67.7636C132.235 68.3262 132.455 68.631 132.676 68.4278C132.108 67.4745 133.078 65.1773 132.29 65.6852C132.29 63.763 131.974 60.5594 132.621 60.2703C132.736 60.7115 132.818 61.1608 132.865 61.6143C132.865 62.0597 132.904 62.505 132.904 62.9426C132.904 63.8099 132.904 64.646 132.999 65.4195C132.999 64.9898 133.172 64.56 133.346 64.8101V67.1073C133.496 66.24 133.63 65.8805 133.708 65.4664C133.756 65.2216 133.782 64.9733 133.787 64.7241C133.787 64.4116 133.748 64.0131 133.693 63.4583C133.645 63.5989 133.551 63.8881 133.503 63.6849C133.44 63.1301 133.433 62.4269 133.369 61.8643L134 61.7393C133.789 60.5895 133.683 59.4231 133.685 58.2544C133.63 57.5512 133.551 56.8011 133.425 56.0431C133.37 55.6603 133.291 55.2618 133.204 54.9023C133.117 54.5429 132.975 54.121 132.841 53.785L133.031 54.0272C132.909 53.1356 132.532 52.2975 131.943 51.6128C131.296 50.9099 130.807 50.0789 130.509 49.1749C130.997 49.8313 131.163 49.4171 131.423 49.1749C130.761 47.9872 131.013 47.1746 130.776 45.8307C130.895 47.3934 129.807 45.0493 129.988 46.1901C129.429 46.4558 128.491 43.9319 128.057 42.6114C128.546 41.5019 130.004 46.5183 130.067 44.221C129.642 42.8693 129.082 42.7208 129.279 43.6975C129.145 43.2756 128.987 42.8068 128.83 42.3145C128.672 41.8222 128.475 41.3222 128.317 40.8221C128.16 40.322 128.01 39.8298 127.9 39.3766C127.792 38.9821 127.715 38.5797 127.671 38.1733C127.12 37.5581 126.617 36.9024 126.166 36.212C125.788 35.6775 125.299 35.2298 124.731 34.8993C125.291 35.8604 125.874 35.626 126.221 37.0247C125.819 36.6574 125.393 36.3058 124.968 35.962C124.527 35.1591 124.15 34.3231 123.841 33.4616C123.574 32.7442 123.266 32.0424 122.919 31.3597L123.92 32.4615H123.801C124.153 32.7846 124.461 33.1524 124.716 33.5554C125.015 33.9773 125.283 34.3367 125.425 34.1023C125.163 33.8987 124.935 33.6562 124.747 33.3835C124.556 33.1349 124.383 32.8739 124.227 32.6021C123.879 31.942 123.441 31.3321 122.927 30.7893H123.045C122.168 29.7417 121.426 28.5893 120.838 27.3591C120.386 26.3332 119.578 25.5016 118.56 25.015C118.931 25.437 119.254 26.6168 118.86 26.4762C118.679 25.6948 117.394 24.3665 117.693 24.1946L118.19 24.6009C117.554 23.6503 116.808 22.777 115.967 21.999C115.329 21.9286 115.431 22.5068 114.391 21.7645C112.484 19.3657 115.967 21.9911 114.761 20.2018C114.013 19.5923 113.185 19.0688 112.397 18.5141L112.2 17.7952C111.516 17.0398 110.755 16.3564 109.93 15.7558C109.153 15.1801 108.336 14.6579 107.487 14.1931L106.218 13.4664L104.902 12.7632C104.011 12.2787 103.128 11.724 102.167 11.1458C102.301 10.8645 103.121 11.0598 103.98 11.4896C104.766 11.878 105.529 12.3111 106.265 12.7866C105.744 12.126 105.079 11.5916 104.319 11.2239C103.473 10.7934 102.68 10.2692 101.954 9.66117C101.623 9.42159 101.27 9.21483 100.898 9.04388C100.599 8.91715 100.287 8.82284 99.968 8.76259C99.4321 8.66101 99.0932 8.76259 99.1326 8.96575C97.1465 8.12187 97.974 7.87965 97.7849 7.64524C96.8233 7.9656 94.5456 6.49663 92.8747 5.98874L92.9535 5.59024L91.6216 5.2777L90.266 5.02765C90.9044 5.30895 90.195 5.42616 90.1083 5.66057L89.4778 5.37928C90.0023 5.84669 90.6123 6.21007 91.2748 6.44975C91.9526 6.72296 92.6445 6.96031 93.3476 7.16079C94.0598 7.34656 94.7496 7.60856 95.4047 7.94216C96.0517 8.26373 96.6216 8.71939 97.0755 9.27829C96.2874 9.03607 97.1622 9.71586 96.3583 9.48927C95.7751 9.15328 95.6805 9.04388 95.6884 8.87198C95.1761 8.98137 94.1121 8.7626 95.3653 9.37206C95.1525 9.73149 94.4431 9.55177 93.5525 9.21578C92.6619 8.87979 91.5664 8.43442 90.6285 8.20001C90.0216 7.6765 90.4709 7.61398 91.1723 7.73119C91.8737 7.88626 92.5846 7.99589 93.3003 8.05936C92.5989 7.81714 91.8974 7.9109 90.9989 7.27799L91.4797 6.80136C88.8394 6.12157 90.5891 7.04359 89.801 7.37958C88.8394 7.87965 87.5863 6.48099 86.8533 6.33253L87.6415 6.43412C85.7499 5.55898 85.1194 5.99655 83.3461 5.47304L82.6289 4.76199C83.3505 5.22142 84.2171 5.40216 85.0642 5.26989C85.656 5.11182 86.2855 5.17006 86.8376 5.43397C85.2613 4.6526 85.5529 4.3635 86.3726 4.30099C87.1922 4.23848 88.5715 4.30099 89.1705 4.30099C87.9316 4.02797 86.7553 3.52705 85.7026 2.8242C84.5443 2.83086 83.3957 2.61321 82.3215 2.18348C81.2461 1.79228 80.0878 1.67933 78.9561 1.8553C77.8133 1.54276 80.0516 1.59746 78.83 1.36305C76.5031 0.8527 74.115 0.671186 71.7367 0.823905C70.4994 0.714513 70.7279 0.448844 70.3969 0.159738C69.0896 0.0037116 67.7709 -0.0381251 66.4562 0.0347162C65.2819 0.144108 64.2179 0.308201 63.146 0.480101C62.0741 0.652002 60.9865 0.909856 59.7727 1.1052C59.1659 1.2224 58.5196 1.33179 57.826 1.41774L55.5719 1.69903L56.4704 1.19896C55.0991 1.36304 53.909 1.42555 53.3178 2.02721C52.7562 1.8695 52.1614 1.8695 51.5997 2.02721C50.8844 2.18801 50.1853 2.41293 49.5111 2.69918C48.8081 2.98085 48.0898 3.22346 47.3595 3.42586C46.7225 3.64628 46.043 3.71846 45.3734 3.63682C44.4029 3.82919 43.4973 4.26197 42.741 4.89482C42.1257 5.45417 41.4458 5.93939 40.7155 6.34036C40.613 6.11376 41.078 5.41052 39.9273 5.78558C36.6447 7.37821 33.4837 9.20625 30.4696 11.2552C27.3091 13.4074 24.333 15.8144 21.5715 18.4515C21.6493 18.222 21.7756 18.0116 21.9419 17.8343C20.959 18.7161 20.0275 19.6527 19.1519 20.6394C18.3637 21.6552 17.4889 22.6397 16.7874 23.6633C15.29 25.6948 13.9501 27.6717 12.5551 29.3673C12.3817 29.7501 11.9876 30.4846 11.767 31.0628C11.5463 31.641 11.4438 32.102 11.8143 31.8989C12.429 31.1175 12.9649 31.2894 13.2093 31.5395C12.9223 32.1189 12.5903 32.6754 12.2162 33.2038C12.0601 33.4228 11.84 33.5891 11.5857 33.6804C11.231 33.821 10.8921 33.7976 10.3089 34.9462C9.75721 35.0869 9.82026 34.6649 9.97789 34.1648C10.1355 33.6648 10.3641 33.0866 10.0488 32.8834C9.51288 34.0398 9.0794 35.2275 8.63016 36.423C7.39278 38.1654 6.90413 40.283 5.83226 41.8222C6.24209 41.1034 5.36725 41.33 6.21056 40.1892C6.15539 40.4002 6.26573 40.2908 6.21056 40.5017C6.59237 39.8242 6.86369 39.0911 7.01447 38.3295C7.0829 37.5981 7.29438 36.8868 7.6371 36.2355C7.36914 36.798 7.13269 37.4388 6.84896 38.0951C6.56523 38.7515 6.29726 39.4078 6.02141 40.072C5.517 41.4159 4.92589 42.6817 4.48453 43.6975C5.18598 43.4475 4.08258 45.4556 4.21656 46.1588L4.12199 46.2682C4.35055 46.3542 4.12199 47.6981 4.05106 48.1122L3.19198 48.417C2.99494 49.3624 3.61757 48.2685 3.42054 49.1983C3.21792 50.3957 2.95487 51.5823 2.6324 52.7536C2.27773 54.1366 1.84425 55.3633 1.43442 55.4727C1.35619 56.1077 1.33247 56.7481 1.36349 57.3871C1.37785 58.0337 1.32768 58.6802 1.21374 59.3171C1.04035 59.1608 1.0167 58.7389 0.930009 58.6685C0.252206 62.255 0.283731 66.74 0 70.2015L0.0945793 71.2329L0.228562 72.2252C0.323139 72.8738 0.409835 73.4911 0.512294 74.0693C0.704348 75.1013 0.991923 76.1135 1.37137 77.0932C1.2295 76.3587 1.14281 74.1709 1.71027 75.4757C2.11222 76.179 2.10434 77.3354 2.44324 78.4371C2.02553 78.234 2.57723 81.3751 1.93095 79.1482C1.14281 79.9295 3.07376 84.0083 2.29349 84.1567C2.62578 84.8487 2.88972 85.5709 3.08164 86.3133C3.34558 87.2194 3.73552 88.0846 4.24021 88.884C3.98012 89.259 3.45206 87.2587 3.2235 87.3213L3.79097 88.7199L3.56241 88.798C3.76382 89.802 4.2164 90.7397 4.8786 91.525C5.38819 92.0555 5.83749 92.6398 6.21845 93.2675H6.10023L6.68345 94.2754L5.53276 93.2831C6.3209 94.9474 7.24303 95.6272 8.2755 97.3306L8.17304 97.6119C8.42525 97.94 8.66169 98.276 8.96118 98.5964C8.8272 98.4323 8.70898 98.4167 8.72474 98.5573C9.35589 99.1022 9.88893 99.7495 10.301 100.472C10.7105 101.171 11.2446 101.79 11.8773 102.3C12.2241 103.019 11.8773 104.043 12.9807 104.644L12.1926 104.918C11.906 104.567 11.6675 104.181 11.4832 103.769C11.4112 103.597 11.3635 103.415 11.3414 103.23C11.2941 102.941 11.2153 102.652 10.3483 101.519C10.74 103.279 11.491 104.941 12.5551 106.402C13.791 108.266 15.1747 110.03 16.6929 111.676C17.2997 112.216 17.9697 112.856 18.6396 113.544C19.3095 114.232 19.9794 114.982 20.673 115.622C21.2705 116.23 21.9162 116.789 22.6039 117.295C23.0593 117.653 23.604 117.882 24.1802 117.959L23.6206 118.099C24.8659 119.396 26.2215 120.576 27.5613 121.772C31.3444 124.327 35.3167 126.968 38.7372 127.851L39.4465 128.593C40.6128 128.733 41.765 128.971 42.8907 129.304C43.5449 129.476 44.2148 129.679 44.9084 129.882L47.0048 130.421C47.6794 130.608 48.3634 130.759 49.054 130.875C49.7239 131 50.3623 131.101 50.9455 131.172C51.8909 131.303 52.8539 131.229 53.7671 130.953C54.705 131.336 54.5552 131.429 54.0902 131.508C53.6602 131.506 53.2315 131.556 52.8134 131.656C53.2189 131.771 53.6371 131.837 54.0587 131.851H55.5168C56.4102 131.794 57.3029 131.974 58.1019 132.375C58.1019 132.492 57.5659 132.492 57.164 132.484C56.762 132.476 56.4783 132.484 56.9275 132.609C57.9285 133.203 58.5038 132.344 59.6466 133C59.4023 132.719 59.9146 132.555 60.6949 132.391C61.5973 132.23 62.5129 132.154 63.4297 132.164C63.2688 132.167 63.1094 132.132 62.9647 132.062C62.7283 131.695 64.0366 131.82 64.7617 131.773C64.6908 131.846 64.5954 131.89 64.4937 131.898C69.2675 131.719 74.0155 131.115 78.6803 130.093C83.442 129.021 88.1075 127.566 92.6304 125.741L91.1566 126.757C91.8703 126.317 92.6189 125.936 93.3949 125.616C94.183 125.249 94.9712 124.952 95.3101 124.835L95.1525 124.96C95.6789 124.884 96.1836 124.701 96.6342 124.421C96.9471 124.22 97.2354 123.984 97.4932 123.717C98.0008 123.152 98.6981 122.788 99.4557 122.694L99.1641 122.967C100.472 122.131 101.631 121.655 102.703 121.045C103.255 120.748 103.791 120.443 104.334 120.084C104.895 119.664 105.422 119.201 105.911 118.701C106.536 118.298 107.201 117.96 107.897 117.693C108.448 117.53 108.977 117.301 109.473 117.013C110.087 116.553 110.511 115.886 110.663 115.138L110.151 115.575C109.323 115.763 110.939 114.302 111.538 113.481C110.545 113.481 110.056 112.481 107.652 113.817C107.207 114.353 106.568 114.695 105.871 114.771C105.127 114.881 104.434 115.214 103.885 115.724C103.672 116.505 102.947 116.818 102.143 117.209C101.219 117.514 100.412 118.095 99.834 118.873C100.086 118.302 99.5661 118.592 99.0853 118.771C98.6045 118.951 98.1947 119.099 98.7385 118.357C98.2656 118.357 97.4617 119.029 96.5554 119.732C95.747 120.417 94.7975 120.918 93.7732 121.201C93.9387 120.967 93.8205 120.873 94.1042 120.623C92.3546 121.928 92.591 120.897 91.1881 121.6L91.5112 122.162C91.0384 122.616 90.6758 122.264 90.2266 122.584C90.6522 122.483 91.6216 122.397 91.2827 122.834C90.7122 123.299 90.0941 123.702 89.4384 124.038C89.336 123.811 89.8089 123.483 90.1162 123.256C90.1162 123.256 88.5399 123.905 88.2799 123.647C88.8675 123.298 89.3989 122.863 89.8561 122.358C87.7282 123.084 89.6039 122.241 88.4138 122.202C88.9892 122.811 86.7272 123.194 85.6553 123.764C85.4425 123.53 86.4435 123.381 86.6248 123.053C85.6159 122.861 84.5713 123.063 83.7086 123.616C82.7551 124.25 81.6832 124.688 80.5561 124.905C80.5561 124.796 80.9186 124.624 81.0841 124.546C80.5228 124.776 79.9178 124.883 79.3108 124.858C78.8176 124.824 78.3271 124.954 77.9158 125.225C76.5996 125.358 77.5138 124.444 75.5514 124.803C75.906 125.139 75.3149 125.202 74.645 125.28C73.9751 125.358 73.2185 125.397 73.2342 125.819C72.6983 125.71 72.1702 125.632 71.6579 125.499C70.326 126.054 72.1545 126.874 69.4354 127.155C66.9448 126.921 69.6088 125.78 68.1586 125.382L67.5832 125.85L66.3931 125.554L66.5665 125.514C65.8572 125.663 64.5646 125.514 64.5725 125.249C64.5804 124.983 65.4552 125.077 65.5656 124.889C64.5933 124.966 63.6158 124.838 62.6967 124.514C62.1555 124.376 61.6004 124.297 61.0416 124.28C60.5784 124.225 60.1112 124.345 59.7333 124.616C59.327 124.458 58.9111 124.325 58.4881 124.217C58.0861 124.085 57.7945 123.928 57.9127 123.749C57.5659 123.967 56.8093 123.795 56.0212 123.592C55.3578 123.341 54.6578 123.199 53.9484 123.17C54.106 122.998 53.3179 122.553 52.6164 122.498C53.4676 122.944 52.8607 122.998 52.1672 123.124C51.6097 122.778 51.0043 122.515 50.3702 122.342C49.6924 122.076 49.0855 121.787 49.0225 121.42C47.6984 121.373 47.9821 121.967 47.5565 122.327C46.9103 121.655 44.404 120.764 45.1448 120.24C45.7517 120.592 47.1782 121.279 47.0758 120.701C45.933 119.967 46.461 120.701 45.4049 120.373C45.531 120.287 44.9005 119.646 45.1763 119.521C44.3927 119.277 43.6454 118.93 42.9538 118.49C43.5291 118.943 43.269 118.967 42.9538 118.967C42.6385 118.967 42.2444 118.889 42.5676 119.224C43.0562 119.264 43.5685 119.264 44.0572 119.279C45.6335 119.92 44.2148 119.811 44.7271 120.24C41.945 119.201 42.1656 120.123 39.4544 119.17C39.0446 118.787 38.3195 118.138 38.0752 117.974C38.9185 118.412 39.0919 117.701 38.6978 117.326C38.3203 117.272 37.958 117.142 37.6338 116.943C37.3422 116.742 37.0774 116.506 36.8457 116.24C36.4293 115.721 35.9819 115.228 35.5058 114.763C36.3334 115.544 35.6004 115.544 35.159 115.497C32.7237 114.294 34.4497 114.669 33.6773 113.739C32.9092 113.187 32.1774 112.587 31.4863 111.942C30.8321 111.356 30.3041 110.723 29.7524 110.153C29.2007 109.582 28.7042 109.004 28.1761 108.465C27.648 107.926 27.0412 107.41 26.4028 106.902C26.6077 107.426 26.8047 107.973 27.0412 108.465L27.8293 108.387C28.381 109.575 26.7259 109.223 25.922 109.004C25.922 108.739 24.4324 107.293 25.2442 107.668C24.7319 107.23 24.1802 106.824 23.6679 106.371C23.6679 106.785 24.661 107.652 23.794 107.152C23.4709 106.535 22.2177 104.855 23.3527 105.59C23.0217 105.175 22.6435 104.8 22.2256 104.472C21.8631 104.199 21.5951 104.05 21.5242 104.261C20.4523 102.902 22.2177 103.941 22.9113 104.339C22.068 103.285 22.6276 103.066 22.9901 103.285L21.8079 101.863C22.1862 102.081 22.3833 101.925 22.7537 102.136C22.4838 101.666 22.1315 101.248 21.7133 100.901C21.3283 100.563 21.07 100.106 20.9804 99.6043L20.2947 99.5184C18.813 96.4789 19.0652 96.7446 17.615 94.002L17.5283 94.6427C17.1923 94.342 16.9238 93.9746 16.7401 93.5644C16.6105 93.3138 16.5202 93.045 16.4722 92.7674C16.3878 91.8384 16.0913 90.9406 15.6052 90.142L14.9747 89.1028C14.7856 88.798 14.6279 88.5324 14.4703 88.3214C14.1629 87.9229 13.9028 87.7745 13.6822 87.9932C13.4915 87.7432 13.3684 87.4491 13.3242 87.1388C13.2801 86.8284 13.3165 86.5121 13.43 86.2195C12.8625 85.571 11.696 84.0708 11.7591 82.7034C12.1689 83.4847 12.4842 84.1411 12.8388 84.8912C13.3196 84.4927 12.1768 82.1721 12.1532 80.8047C11.9246 80.3827 11.4438 79.4763 10.9631 78.4606C10.4823 77.4448 9.96213 76.3118 9.62322 75.4835C9.22127 76.3196 8.48042 76.1477 7.80261 74.6162C8.00753 74.7178 8.03117 74.1709 8.03906 73.4676C8.0476 72.7574 8.09232 72.0481 8.17304 71.3423C8.37008 71.6002 8.53558 70.9829 8.72474 70.5609C8.91389 70.139 9.05576 70.0062 9.19763 71.1235C9.05576 71.7877 8.56711 72.1315 8.81932 73.0144C9.04507 72.5632 9.21192 72.0853 9.31585 71.5923L9.78085 69.4983C10.109 69.9775 10.2822 70.5444 10.2774 71.1235C10.0882 70.7563 9.98577 70.9985 9.8439 71.0454Z" fill="#C4A87E"/>
</svg>
