<svg width="122" height="122" viewBox="0 0 122 122" fill="none" xmlns="http://www.w3.org/2000/svg">
<path d="M61.1063 16.7542C54.4062 16.7542 48.9755 19.0585 48.9755 21.9013C48.9366 25.4898 50.1971 28.9727 52.5273 31.7156C54.7214 34.2203 57.7562 35.122 61.1063 35.122C64.4564 35.122 67.4912 34.2286 69.6853 31.7156C72.0155 28.9727 73.276 25.4898 73.2371 21.9013C73.2161 19.0585 67.7854 16.7542 61.1063 16.7542ZM61.1063 25.0614C54.3095 25.0614 50.7535 22.7112 50.7535 21.9013C50.7535 21.0915 54.2885 18.7537 61.1063 18.7537C67.9241 18.7537 71.4591 21.104 71.4591 21.918C71.4591 22.732 67.8821 25.0614 61.1063 25.0614Z" fill="white"/>
<path d="M73.2162 34.166C66.5161 34.166 61.0853 36.4703 61.0853 39.3132C61.0465 42.9017 62.307 46.3846 64.6372 49.1274C66.8355 51.6322 69.8661 52.5338 73.2162 52.5338C76.5662 52.5338 79.601 51.6405 81.7952 49.1274C84.127 46.3855 85.3877 42.902 85.347 39.3132C85.347 36.4703 79.9205 34.166 73.2162 34.166ZM73.2162 42.4733C66.4236 42.4733 62.8634 40.123 62.8634 39.3132C62.8634 38.5033 66.4236 36.1489 73.2162 36.1489C80.0088 36.1489 83.5732 38.4992 83.5732 39.3132C83.5732 40.1272 80.0214 42.4733 73.2162 42.4733Z" fill="white"/>
<path d="M48.2191 34.166C41.519 34.166 36.0883 36.4703 36.0883 39.3132C36.0494 42.9017 37.3099 46.3846 39.6401 49.1274C41.8342 51.6322 44.869 52.5338 48.2191 52.5338C51.5691 52.5338 54.604 51.6405 56.7981 49.1274C59.1283 46.3846 60.3888 42.9017 60.3499 39.3132C60.3499 36.4703 54.9192 34.166 48.2191 34.166ZM48.2191 42.4733C41.4223 42.4733 37.8663 40.123 37.8663 39.3132C37.8663 38.5033 41.4223 36.1489 48.2191 36.1489C55.0159 36.1489 58.5845 38.4992 58.5845 39.3132C58.5845 40.1272 55.0117 42.4733 48.2191 42.4733Z" fill="white"/>
<path d="M13.8122 102.601C13.8122 103.077 14.2325 103.478 15.0732 103.799C14.1848 107.022 13.417 109.074 12.7697 109.957V110.149C14.0223 110.346 14.6486 110.625 14.6486 110.984V111.572C14.3404 112.243 11.8982 113.505 7.32221 115.358C7.32221 115.876 7.1835 116.135 6.90187 116.135L7.32221 117.145H6.70852C2.93113 116.416 1.04103 114.621 1.03822 111.76C0.596975 109.993 0.250413 108.204 0 106.4H1.03822C1.03822 106.893 1.80743 107.423 3.34165 107.999C4.61106 110.913 5.73194 112.37 6.70432 112.37C9.34121 110.229 10.6597 108.622 10.6597 107.548V107.172C10.6597 106.894 10.4537 106.755 10.0418 106.755C8.50615 107.414 7.38526 107.744 6.6791 107.744H5.4181C4.01699 107.56 3.31643 106.965 3.31643 105.957C4.02539 105.957 7.16949 104.829 12.7487 102.572L13.8122 102.601ZM17.385 86.6754C20.3245 87.5715 21.7929 88.7001 21.7901 90.0609V90.6495C20.2545 92.8008 19.4867 94.6612 19.4867 96.2309C20.3273 96.7875 20.7477 97.4526 20.7477 98.2263C20.7477 98.6493 19.4867 99.1127 16.9647 99.6164C15.9878 99.5025 15.0058 99.4384 14.0223 99.4244H12.1308L9.62983 101.992C8.03537 101.992 6.63426 97.422 5.42651 88.2826H5.62826L8.77236 90.2613C11.6533 89.2617 14.462 88.0678 17.179 86.6879L17.385 86.6754ZM9.63825 92.2442V92.8328C9.78396 95.1316 10.4845 96.4632 11.7399 96.8278C13.9677 96.8278 15.0886 95.3709 15.1026 92.4571C15.0795 92.1091 15.1476 91.761 15.3001 91.4469H12.1308C10.4607 91.4552 9.62703 91.7252 9.62983 92.2567L9.63825 92.2442ZM27.2376 102.401C30.1631 102.957 31.6245 103.553 31.6217 104.187C31.0081 106.16 30.2466 108.084 29.3435 109.944C29.8857 109.944 30.1631 110.362 30.1631 111.142V111.731C29.6447 112.39 28.4552 113.057 26.5945 113.73C26.5945 113.998 26.5314 114.148 26.3969 114.148C24.9843 114.116 23.5804 113.919 22.2146 113.559C21.9462 114.263 21.7381 114.988 21.5925 115.726H21.3698C20.0723 115.726 18.398 114.142 16.3468 110.975C16.1982 109.639 16.124 108.636 16.124 107.965V105.586C16.2291 103.862 16.5065 103.002 16.9647 103.002H17.1874C17.1874 103.87 17.9552 104.865 19.4909 105.987C20.3287 105.987 22.9082 104.796 27.2292 102.413L27.2376 102.401ZM20.0919 108.746C20.089 109.217 20.2024 109.682 20.4223 110.1C20.6421 110.518 20.9616 110.876 21.3529 111.142C24.8389 110.541 26.5805 109.61 26.5777 108.349C26.7279 107.63 26.8026 106.897 26.8005 106.162H26.212C24.1467 106.17 22.1095 107.036 20.1003 108.759L20.0919 108.746Z" fill="white"/>
<path d="M61.415 82C63.5167 82.4634 64.5591 82.9935 64.5591 83.5947V84.0121C64.5591 84.8804 64.1388 86.6045 63.2981 89.1843C65.8201 89.6908 67.0811 90.1528 67.0811 90.5703V91.9604C62.3174 91.9604 59.9355 93.0249 59.9355 95.1539C57.5732 96.8487 56.392 98.2402 56.392 99.3284C69.131 103.155 75.8983 105.938 76.6942 107.677L75.8535 108.663C70.4648 107.867 65.7193 106.41 61.6168 104.292C59.389 102.706 57.4345 101.78 55.7531 101.516L55.3328 102.104V102.313L55.7531 102.104H56.392C56.7098 102.095 57.0226 102.185 57.2854 102.363C57.5481 102.541 57.7475 102.797 57.8548 103.094V104.292C57.8508 104.962 57.7833 105.63 57.653 106.287C57.7986 106.872 57.8664 107.472 57.8548 108.074V108.875H58.0524C58.7055 108.339 59.4093 107.866 60.154 107.464C61.6869 107.971 62.4533 108.707 62.4533 109.673V110.09C59.4605 110.925 57.9221 111.581 57.8506 112.086V121.608C57.1108 121.75 56.6905 121.816 56.5896 121.816C55.0024 121.109 53.5734 120.095 52.3863 118.832C52.5936 118.175 53.2872 117.846 54.4669 117.846H54.8873V112.649L49.2422 114.035C49.2422 113.618 48.8891 113.426 48.1787 113.426V113.029C48.5486 112.339 50.7904 111.476 54.9041 110.441V105.081L54.7065 103.085H54.4837C52.9958 104.329 50.3463 107.384 46.5352 112.248C43.0857 115.031 40.5637 116.423 38.9692 116.423C47.502 107.078 51.7684 101.045 51.7684 98.3265H51.5246C49.72 97.8061 48.8191 96.9364 48.8219 95.7174C47.8696 95.9778 46.8881 96.118 45.9005 96.1349C43.8493 96.1349 42.5883 94.8102 42.1175 92.1607L43.16 91.952L45.2616 93.3588C46.943 92.741 47.7836 92.2735 47.7836 91.952C47.4021 90.2596 47.1868 88.5344 47.1405 86.8007V86.592H48.1787C49.8601 87.8666 50.7007 89.2581 50.7007 90.7665V91.163H50.8983C57.0099 85.0683 60.5155 82.0139 61.415 82ZM47.5987 114.645H47.8215C48.3679 114.645 48.9942 115.773 49.7003 118.03C49.7003 118.773 49.1399 119.838 48.019 121.224C46.2032 120.063 45.2952 119.068 45.2952 118.239C46.4049 115.843 47.1727 114.645 47.5987 114.645ZM54.7443 89.5976V90.7957L55.7868 90.5828H56.825V91.0002C55.2305 92.7118 53.8294 93.5662 52.6217 93.5634V94.7615C52.6217 96.2893 53.3194 97.1535 54.7233 97.3497H55.1437C56.9595 94.5444 57.8674 92.8899 57.8674 92.3862C57.3042 92.3862 57.0268 92.1858 57.0268 91.7767V91.5888C58.2878 90.8458 58.9056 90.3156 58.9056 89.99C59.7095 88.4497 60.1413 86.7446 60.1666 85.0098H59.326C57.5109 86.2198 55.9492 87.7679 54.7275 89.5684L54.7443 89.5976ZM62.6929 113.668C64.9346 114.453 66.0555 115.384 66.0555 116.461V116.84C66.0555 117.514 64.5143 117.983 61.4319 118.247V117.851C61.4206 115.043 61.8354 113.639 62.676 113.639L62.6929 113.668Z" fill="white"/>
<path d="M87.2741 98.4183H87.8919C88.4846 98.7128 88.9793 99.1706 89.3169 99.7369C89.6546 100.303 89.8209 100.954 89.7961 101.612V102.029C88.3949 103.234 87.6944 104.292 87.6944 105.202C87.9592 105.244 88.0895 105.377 88.0895 105.619V106.229L83.9282 107.427L84.13 108.395V109.802H82.4486C81.7733 109.802 80.445 107.35 78.4639 102.447H79.3298C80.2125 102.447 81.5337 103.308 83.2935 105.031H84.3317C85.1724 103.639 85.5927 102.582 85.5927 101.858C83.9114 102.643 82.6574 103.035 81.8307 103.035H81.4104C81.0354 102.432 80.8213 101.744 80.7883 101.036L87.2741 98.4183ZM105.693 88.8962C107.935 89.5809 109.056 90.239 109.056 90.8708C106.934 98.1706 105.12 101.822 103.612 101.825C103.169 101.765 102.742 101.623 102.351 101.407C99.8589 102.675 97.2684 103.743 94.6047 104.601L94.4071 105.799C94.4071 109.639 95.727 111.56 98.3667 111.56C99.0028 111.56 100.544 111.629 102.99 111.768C112.613 111.265 117.425 110.395 117.425 109.159V105.377H118.488C118.488 105.836 119.469 107.566 121.43 110.566C121.43 112.937 116.264 114.396 105.933 114.941C96.8535 114.27 92.3139 112.546 92.3139 109.769C92.0509 108.595 91.9101 107.398 91.8935 106.195V97.6377L92.0953 97.2202C94.1885 97.6794 95.2352 98.3445 95.2352 99.2156L94.8148 102.013C97.1463 102.013 98.4759 100.554 98.8038 97.6377C98.9706 97.3294 99.0464 96.9807 99.0224 96.6316C98.8753 95.8301 98.6609 95.4335 98.3793 95.4335C97.6451 95.4335 96.597 95.9651 95.2352 97.0282H94.6005C94.0877 96.768 93.6584 96.3705 93.3613 95.8806C93.0642 95.3908 92.911 94.8281 92.9191 94.2563L105.693 88.8962ZM100.468 93.6468C100.913 95.4106 101.187 97.2123 101.288 99.0278H101.927C102.532 99.0278 103.3 97.1075 104.23 93.2669V92.4696H104.033L100.468 93.6468Z" fill="white"/>
<path d="M30.25 37.9565C30.5862 39.3758 30.6703 37.6183 30.9519 37.8271C30.8679 37.4513 30.9015 36.6457 30.7249 37.0297C30.8392 36.8217 30.8917 36.5857 30.8763 36.3493C30.8787 36.07 30.8604 35.791 30.8216 35.5144C30.6966 35.0013 30.7318 34.4626 30.9225 33.9698C30.8763 33.9281 30.6829 34.3873 30.5988 33.8154C30.5759 33.5605 30.6301 33.3047 30.7544 33.0806C30.8458 32.9734 30.926 32.8574 30.994 32.7342C30.9327 32.4603 30.9115 32.1791 30.9309 31.8993C30.9309 31.5653 30.994 31.2814 31.0192 31.3482C30.9898 30.7721 30.4391 31.8617 30.3635 31.0477C30.1113 30.4507 30.5568 29.7953 30.5988 29.1483C30.9855 28.4553 30.5988 29.9289 30.6367 30.2587L30.7922 29.19C30.8384 28.8352 30.9225 28.4845 30.9855 28.1297C31.3134 27.5661 31.2251 28.4887 31.0234 29.0856C31.229 28.6948 31.3628 28.2708 31.4185 27.8333C31.4886 27.5253 31.477 27.2046 31.3849 26.9024C31.5208 26.4778 31.6996 26.068 31.9187 25.6792C31.8809 26.2052 32.339 26.3305 32.1793 27.0902C31.759 28.2925 31.9775 26.5392 31.5782 27.5536L31.8178 27.7248C31.5404 28.1422 31.6539 28.5596 31.5404 29.0314C31.4017 29.2818 31.4605 28.9479 31.4689 28.7559C31.3512 29.1942 31.2504 29.5908 31.1705 29.9539C31.0759 30.311 31.0759 30.6864 31.1705 31.0435C31.2251 30.8974 31.2714 30.7429 31.3176 30.5843C31.3638 30.4257 31.4143 30.2587 31.4563 30.0875C31.5446 29.7536 31.5992 29.3987 31.6749 29.0731C31.8388 28.4219 31.9649 27.8458 32.2129 27.6496L32.3895 26.4473L32.6248 25.2493C32.503 25.195 32.007 25.9172 32.07 25.1992C32.4903 25.0489 32.9107 24.4519 33.331 23.6212C32.8476 23.7798 33.6967 22.1351 33.2301 22.4231C33.2249 22.5558 33.1785 22.6836 33.0972 22.789C33.0159 22.8944 32.9038 22.9722 32.7762 23.0117C33.1629 22.1768 32.5282 22.7529 32.7383 22.2854C33.1587 21.534 33.2133 21.5882 33.2511 21.6341C33.289 21.6801 33.352 21.7343 33.806 21.0414C33.7836 21.3508 33.7443 21.6588 33.6883 21.9639C33.6264 22.3992 33.5365 22.83 33.4193 23.2538C33.5958 23.2538 33.7892 22.4189 34.1338 22.1852C33.7135 22.5609 34.0119 21.7009 33.7135 22.0432C34.1969 20.7909 34.6887 19.2839 35.5798 17.9063C35.7185 18.1693 35.4201 18.7913 35.1595 19.3298C34.8988 19.8683 34.798 20.3651 35.1931 20.3192C35.5251 19.6179 35.3234 19.4843 35.7101 18.9875C36.0586 18.7454 36.3462 18.4269 36.5508 18.0566C36.6979 17.8395 36.8492 17.6016 37.0005 17.3636C37.1533 17.1334 37.3188 16.9118 37.4965 16.6999L37.0762 16.9545C37.358 16.48 37.719 16.0565 38.1438 15.7022L38.1102 15.8399L38.354 15.4225C38.417 15.3807 38.4381 15.3807 38.4549 15.3933C38.6734 14.8965 39.7159 14.0825 40.3842 13.3644C40.3001 13.2684 40.1068 13.4187 39.905 13.6483C39.7201 13.8855 39.5193 14.11 39.3039 14.3204C39.2367 14.3455 39.0181 14.4916 38.8416 14.5834C38.665 14.6752 38.5347 14.717 38.623 14.4874C39.0237 14.0845 39.3945 13.6534 39.7327 13.1975C40.1224 12.7281 40.5543 12.2949 41.0231 11.9034C40.8886 11.9702 40.7541 12.0453 40.6028 12.1246C40.8298 11.7072 41.3846 11.3941 41.9058 10.9641C42.4564 10.6844 42.3261 10.889 42.1454 11.1227C41.9647 11.3565 41.7545 11.6446 42.0866 11.4776C41.8554 11.9576 41.0399 12.254 41.1576 12.5963C41.4266 12.5295 41.7041 12.4753 41.9731 12.421C42.1543 12.1578 42.4042 11.9486 42.696 11.8157C42.9477 11.7169 43.1862 11.5879 43.4064 11.4317L42.9314 11.5694C42.8432 11.2814 43.3265 11.2062 43.5241 11.1144L43.0323 10.9516C42.7721 11.113 42.5394 11.3145 42.343 11.5485C42.1877 11.7521 41.9689 11.8989 41.7209 11.966C41.9987 11.695 42.2416 11.3907 42.4438 11.0601C42.7041 10.6911 43.0373 10.3786 43.4232 10.1417C43.5661 10.2377 43.213 10.3504 43.1584 10.5592C43.4194 10.4425 43.6604 10.2862 43.873 10.0958C44.1167 9.85049 44.4011 9.64857 44.7136 9.49885C44.3606 9.84116 43.8057 10.3839 44.432 10.2503L44.6422 9.74932C44.9869 9.58651 44.9196 9.78272 45.0625 9.71175C45.5627 9.49885 44.7935 9.4905 45.5795 9.13985C45.7182 9.13985 45.9999 9.05635 45.9242 9.17741C46.7943 8.72657 46.2941 8.87268 47.0465 8.31747C46.3109 8.68482 46.0629 8.2799 46.8195 7.84157C47.946 7.35733 48.6311 6.7896 49.5643 6.86891L50.0056 6.48069C49.7702 6.86892 50.7748 6.33458 51.1615 6.26361C51.2708 6.3972 50.8337 6.53913 50.3923 6.70611C49.951 6.87309 49.518 7.12356 49.6063 7.34898C50.3629 7.11521 50.0939 7.39073 49.909 7.61615C50.6824 7.26967 50.0771 7.1486 50.3629 6.82299C50.4092 6.94823 51.771 6.40554 51.3717 6.82299C52.0695 6.62262 52.1073 6.28866 52.6327 6.19682C52.5995 6.27254 52.5824 6.35425 52.5824 6.43685C52.5824 6.51945 52.5995 6.60116 52.6327 6.67689C52.6663 6.55165 53.3599 6.50573 53.4734 6.49738C53.3389 6.46399 53.6583 6.17595 53.053 6.40137C53.1455 6.1175 54.499 6.07159 54.4233 5.86703C54.4822 6.00062 54.8437 5.96304 55.2304 5.8879L55.8693 5.76684C56.0623 5.73484 56.258 5.72225 56.4535 5.72927C56.3779 5.39531 56.0752 5.48298 55.7642 5.62073C55.4532 5.75849 55.1253 5.91295 54.9656 5.64996C55.8062 5.23251 57.9079 5.20328 59.3623 4.86515C60.6233 4.96534 59.3623 5.12814 59.6313 5.37444C59.3929 5.40607 59.1529 5.42419 58.9125 5.42871H58.3703C57.9874 5.42102 57.605 5.45886 57.2312 5.54142C57.5002 5.54142 57.8154 5.54142 58.1433 5.54142C58.4711 5.54142 58.8158 5.48297 59.1563 5.47045C59.731 5.43411 60.3026 5.35879 60.867 5.24503C62.0566 5.24503 62.128 5.97557 63.5488 5.92548C63.3848 5.68753 63.4227 5.62491 62.9855 5.50803C63.3986 5.50191 63.8109 5.54678 64.2129 5.64161C64.4819 5.53307 63.5992 5.39531 64.1835 5.34104C64.4021 5.41201 64.8728 5.49968 64.7593 5.63744H64.6627C65.0604 5.60564 65.4559 5.72168 65.7723 5.96305C65.9132 6.06396 66.0753 6.1318 66.2464 6.16145C66.4175 6.19109 66.5932 6.18178 66.7601 6.1342C66.6887 6.00479 66.4154 6.08411 66.1506 5.95887C65.9615 5.7418 66.7223 5.65413 67.2771 5.70423C67.1468 5.83781 67.7437 5.82529 68.1178 5.98392C68.2103 6.14255 67.9749 6.09663 67.6975 6.02984C67.4571 5.95508 67.2037 5.93091 66.9535 5.95887C67.2939 6.05489 67.6344 6.12168 67.9665 6.23856L67.7647 6.13837L68.9332 6.20517C68.1388 6.07158 68.6432 5.78771 68.9963 5.86286C69.7613 6.13002 70.5095 6.45146 70.3288 6.69776C70.5137 6.44311 71.4468 6.81465 72.1362 7.00667C71.4426 6.63932 72.1362 6.74368 72.38 6.74786L73.3425 7.47839C72.1824 7.06094 73.477 7.81653 73.1324 7.87497C72.8703 7.92152 72.6002 7.8726 72.3716 7.73721C72.2329 7.67042 72.0899 7.5911 71.9512 7.51596L71.5099 7.30307C71.8687 7.66058 72.3379 7.88839 72.8423 7.95011C73.0565 7.97775 73.2685 8.01959 73.477 8.07535C73.7119 8.14775 73.9293 8.26708 74.116 8.426C74.0613 8.54289 73.9058 8.6389 73.4981 8.40096C73.6865 8.51296 73.8948 8.58806 74.1118 8.6222C74.4609 8.7056 74.7868 8.86533 75.0659 9.08975C74.944 8.9186 74.7002 8.4761 75.398 8.74327L76.0789 9.49468C76.9868 10.1543 76.5791 9.40284 77.4534 9.77437L77.0331 9.25673C77.1466 9.16072 77.4198 9.33188 77.6846 9.49468C77.9494 9.65749 78.1974 9.83699 78.2983 9.71175C77.8233 9.35274 77.3988 9.40284 76.928 8.98956C76.8859 8.60551 77.6846 9.26925 78.0755 9.3277C78.37 9.56787 78.6507 9.82431 78.9162 10.0958C79.0633 10.2628 79.1726 10.4089 79.4752 10.8055C79.3407 11.01 78.9582 10.8723 78.5547 10.8055C78.1511 10.7387 77.7771 10.6844 77.6846 10.9975C78.7312 11.5861 80.1688 12.6047 80.6269 13.2643C81.518 13.8863 81.6946 13.5648 81.766 13.2643C82.0333 13.4573 82.2591 13.7014 82.4301 13.9823L81.951 13.736C82.5016 14.1534 82.9093 14.4916 83.3297 14.8422C83.7878 15.2402 84.2097 15.6774 84.5907 16.1488C85.1707 16.7249 85.1791 16.3033 85.2338 15.9986L85.8222 16.679L85.7844 16.5329C85.9652 16.5329 86.1585 16.6874 86.3519 16.9211C86.5452 17.1549 86.7133 17.468 86.8857 17.7185C86.7806 17.7936 86.5452 17.5097 86.499 17.5849C86.7523 18.1204 87.0979 18.6078 87.5204 19.0251C87.4657 19.0585 87.327 19.0251 87.1715 18.9374C86.9824 18.7747 86.8366 18.5683 86.747 18.3363C86.747 18.2653 86.7932 18.2653 86.7848 18.1943L86.0408 17.4221C86.3759 17.7683 86.6337 18.1808 86.7974 18.6327C86.8983 18.9625 86.8436 19.2004 86.7091 19.2714C87.4783 20.2106 86.4611 18.257 87.3228 19.4175C87.3813 19.6518 87.4557 19.882 87.5456 20.1063C87.6297 20.3275 87.7179 20.5237 87.8146 20.7366C87.9996 21.1541 88.2349 21.4922 88.4031 21.8512C88.5714 22.1771 88.712 22.5164 88.8234 22.8656C88.9158 23.1862 88.9158 23.5261 88.8234 23.8466L89.2438 24.4185C89.3867 24.6189 89.5212 24.836 89.6641 25.0739C89.807 25.3119 89.9499 25.5624 90.0844 25.8379C90.2178 26.1335 90.3357 26.4359 90.4375 26.7437C90.5636 26.702 90.6603 26.9149 90.757 27.1069C90.8536 27.2989 90.9335 27.4868 91.0764 27.3741C91.015 26.7437 90.8 26.1377 90.4501 25.6083C90.11 25.1479 89.9168 24.5967 89.8953 24.0261C89.5464 23.5252 89.4245 23.8007 89.1891 23.6087C89.0835 23.3975 88.995 23.1784 88.9243 22.9533C88.8612 22.7654 88.8444 22.6193 88.8991 22.5358C89.2479 23.0451 89.3993 23.066 89.5842 23.1161C89.7692 23.1662 89.9373 23.2789 90.2568 23.9969C90.2694 23.6921 90.1997 23.3894 90.055 23.1203L89.8154 22.5358C89.7313 22.348 89.6557 22.181 89.6052 22.0432C89.786 22.1434 89.8406 21.9264 89.765 21.5465C90.0041 21.7452 90.2237 21.966 90.4207 22.2061C90.6477 22.4774 90.8662 22.7654 91.047 22.9533C90.8704 22.8447 90.9293 23.162 90.8074 23.0618C90.9713 23.2956 91.1521 23.5252 91.3076 23.7673L91.7826 24.4979C91.812 25.0447 91.6817 25.2367 91.4505 25.0238C91.5808 25.4705 91.8162 26.0508 92.0053 26.5267C92.1945 27.0026 92.2659 27.3991 92.081 27.4492C92.4509 28.593 92.2071 27.0318 92.287 26.8857L92.3332 26.9817C92.2155 26.5642 92.06 26.176 91.9129 25.7711C92.1062 25.6291 92.1945 25.9882 92.287 26.3847C92.3794 26.7813 92.4593 27.2196 92.7073 27.2697C93.1276 27.2697 93.1907 27.7206 93.1739 28.2841C93.0861 28.8379 93.0932 29.4025 93.1949 29.9539C92.9343 29.6492 92.6611 29.3528 92.4005 29.0648L92.7157 29.8997C92.3794 29.4446 91.9969 29.524 91.5976 28.831C91.7111 29.4196 91.833 30.1376 91.896 30.8055C91.9339 31.1395 91.9801 31.4609 92.018 31.7406C92.0391 31.9825 92.0784 32.2226 92.1356 32.4586C91.9717 32.7801 91.7952 32.9304 91.5808 32.8218C91.7005 33.0675 91.7704 33.3342 91.7868 33.6066C91.7999 33.8369 91.7872 34.0679 91.7489 34.2954C91.6507 34.7464 91.5875 35.2041 91.5598 35.6647C91.8078 36.7375 91.8372 34.5751 92.1483 35.3516C92.0011 35.6855 92.1483 36.2741 92.1945 36.5747C92.1534 36.2532 92.1534 35.9277 92.1945 35.6062C92.2323 35.1888 92.308 34.6795 92.3164 34.2787C92.3542 34.8757 92.6316 34.7964 92.7577 34.9592C92.7788 34.621 92.7577 34.2829 92.7577 33.9448C92.9385 33.9656 92.9679 34.2787 92.9805 34.6419C92.9489 34.9826 92.9701 35.3262 93.0436 35.6605C92.7157 35.3641 92.7073 35.5311 92.3794 35.243C92.5553 36.205 92.5194 37.1933 92.2743 38.1401C92.1104 38.5576 92.1482 37.7686 92.0516 37.5307C91.8372 37.7185 92.1357 38.3948 91.8498 38.5451C91.6565 38.399 91.8708 38.0191 91.8246 37.7102C91.7363 38.5451 91.6565 39.38 91.5094 40.1815C91.3791 40.1815 91.4211 39.5469 91.5094 39.1671C91.3961 39.4975 91.3421 39.8451 91.3496 40.194C91.384 40.5986 91.4658 40.9979 91.5934 41.3837C91.4812 41.7732 91.3407 42.1541 91.1731 42.5234C91.0218 42.8156 90.8915 42.9408 90.8284 42.7989C90.8284 43.1955 90.9965 42.97 91.1268 42.9951C90.8242 44.0972 91.2109 44.3268 91.047 45.0072L91.4169 44.5605C90.8789 45.5833 91.7531 44.9279 91.2824 45.8421C91.1813 45.7368 91.0509 45.6639 90.9079 45.6327C90.7649 45.6014 90.6157 45.6133 90.4795 45.6668C90.6687 45.8964 90.2694 46.4265 90.1348 46.8273C90.4669 46.6603 90.0298 47.7707 90.5132 47.2072C90.4387 47.6201 90.3027 48.0196 90.1096 48.3927C89.9408 48.6898 89.8497 49.0243 89.8448 49.3654C90.1054 48.9479 89.7397 50.2754 90.0634 49.979C89.6641 50.8849 89.0882 51.3441 88.9663 50.9809C89.1303 50.6887 89.4665 50.2546 89.2606 50.2003C89.0084 50.7304 88.7898 51.2773 88.5082 51.7908C88.1803 52.108 87.8566 52.5672 87.575 52.4796C87.575 53.1266 86.5326 53.7319 86.5998 54.3122C86.7371 53.8896 87.0238 53.5308 87.4069 53.3019L87.3102 53.5649C87.3374 53.5257 87.3669 53.4881 87.3985 53.4522C87.3985 53.757 87.4195 54.07 87.3985 54.3748C87.9659 53.8613 87.1925 54.0826 87.7474 53.2059C88.1887 52.9471 88.071 53.4731 87.9323 53.9949C87.7936 54.5167 87.6129 55.0135 88.0122 54.7004C88.5544 54.1118 88.1004 53.9824 88.2938 53.3437L88.1929 53.4815C88.4031 53.039 88.5712 52.5756 88.7435 52.1206C88.9201 52.1414 88.8192 52.5923 88.8192 52.5923C89.0336 52.2041 89.2185 51.9077 89.3867 51.653C89.5548 51.3984 89.6851 51.173 89.8322 50.9517C89.9793 50.7305 90.1391 50.505 90.2988 50.2212C90.4585 49.9373 90.6309 49.6033 90.8368 49.1692C90.7233 49.2735 90.1222 49.4155 90.3829 48.614C90.4795 48.0045 90.778 48.0462 90.9839 47.5829C90.9335 47.8834 91.0932 48.2383 90.7822 48.5555L91.11 48.6515C91.0557 49.0694 91.077 49.4935 91.1731 49.9039C91.2109 50.1836 91.2151 50.5217 90.82 51.4485C90.9125 51.5445 90.82 51.9411 90.6435 52.4253C90.4218 52.9518 90.1531 53.4576 89.8406 53.9365C90.0004 53.8238 90.1475 53.7027 90.2988 53.5858C90.2147 54.1995 90.097 54.1953 89.9667 54.2245C89.8364 54.2537 89.6725 54.3122 89.4413 55.0344C89.2648 55.1012 89.0714 55.193 88.8739 55.2765C88.6905 55.3503 88.5023 55.4117 88.3106 55.4602C87.9743 55.527 87.7516 55.4602 87.823 55.0218C87.5661 55.3123 87.3511 55.6369 87.1841 55.9862C87.0235 56.3123 86.8321 56.6226 86.6125 56.9129C85.9862 57.1174 86.4611 56.4454 86.1039 56.2992C85.9293 56.5535 85.7814 56.8249 85.6625 57.1091C85.57 57.3262 85.5868 57.4472 85.8264 57.3345L84.9143 58.1694C84.8345 58.1402 85.1161 57.8062 85.2338 57.681C85.0127 57.8916 84.8244 58.1336 84.6747 58.399C84.5224 58.6114 84.3994 58.843 84.309 59.0878C84.3637 59.0001 84.5318 58.733 84.6663 58.6704C84.3677 59.097 84.1142 59.553 83.9097 60.0313C84.2922 59.3466 84.6453 59.5929 85.0152 58.8457C85.0487 58.9618 85.0434 59.0855 85.0002 59.1983C84.957 59.3112 84.8782 59.4072 84.7756 59.4719C85.4019 59.1504 85.7928 58.6077 86.1669 58.5618C86.0138 58.6608 85.8824 58.7895 85.7806 58.9401C85.6787 59.0908 85.6086 59.2603 85.5742 59.4385C86.0408 59.0228 86.4368 58.5351 86.747 57.9941C87.1253 58.207 87.8945 56.3827 87.8314 57.1801C87.802 57.0882 87.9029 56.9004 88.0458 56.6916C88.1758 56.4843 88.3326 56.2948 88.5124 56.1281C88.5754 56.1991 88.4871 56.4495 88.3737 56.7501C88.2441 57.0296 88.1359 57.3185 88.05 57.6142C86.9739 59.3425 87.8272 57.3888 87.4321 57.681C87.2808 57.8856 87.1379 58.0984 86.9782 58.2905L86.4948 58.8833C86.6419 58.8039 86.3224 59.5428 86.9529 58.7664C86.8722 59.1064 86.7298 59.4289 86.5326 59.7182C86.3049 60.0697 86.0039 60.3687 85.6499 60.5948C85.6163 60.8161 85.9988 60.3777 86.1291 60.2525C86.0997 60.4612 85.7382 61.5049 86.6713 60.6032C86.4065 60.8578 86.9529 60.0104 86.3939 60.3986C86.7091 59.9812 87.7347 59.0377 87.5582 59.6138C87.9323 59.1003 88.4998 58.0484 88.773 57.6142C89.0168 57.6142 88.5712 58.0108 88.4872 58.2738L88.9915 57.5224L89.4623 56.7501L88.9958 57.0506C89.3759 56.618 89.6621 56.1121 89.8364 55.5645C89.9961 55.0636 90.1054 54.5793 90.3114 54.0951C90.5258 54.3873 90.0928 55.1471 89.8911 55.8317C90.5804 55.4894 89.9457 55.3433 90.5678 54.4458C90.6981 54.3539 90.7864 54.3623 90.8368 54.475L91.0092 53.5649C91.1647 53.3604 91.1605 53.5232 91.1226 53.6276C91.3244 52.8845 91.2151 52.8386 91.1605 52.7467C91.1058 52.6549 91.1016 52.5213 91.4673 51.5987C90.799 52.5881 91.2319 52.6132 90.7191 53.4815C90.2231 53.8655 90.9083 52.2792 90.883 51.9494C91.3706 51.1145 91.896 51.2439 92.144 50.0083C91.9507 50.8432 92.4299 50.1669 91.9339 51.294C91.7826 51.987 92.2365 51.0352 92.4551 50.9767C92.5308 50.6511 92.0348 51.0268 92.4551 50.217L92.4887 50.2671L92.6106 49.5198L92.7031 48.7601C92.8679 48.4404 92.9988 48.1047 93.094 47.7582C93.1823 47.4034 93.2537 47.0318 93.3294 46.6812C93.4051 46.3305 93.4681 45.9924 93.548 45.6876C93.6144 45.4133 93.7328 45.1541 93.8968 44.9237L93.5017 45.0448C93.6068 44.6273 93.6993 44.1222 93.7876 43.6463C93.8296 43.4084 93.8674 43.1788 93.9052 42.97C93.9431 42.7613 93.9473 42.5735 93.9557 42.419C94.0528 42.5717 94.093 42.7534 94.0692 42.9325C94.0692 43.1704 94.0187 43.4626 93.9893 43.7674C94.3252 42.4864 94.3882 41.1499 94.1743 39.8433C93.9526 40.3284 93.7562 40.8244 93.5858 41.3295C93.5134 41.1528 93.4826 40.9621 93.4957 40.7718C93.5088 40.5816 93.5655 40.3968 93.6615 40.2316C93.8855 39.8392 93.9727 39.3842 93.9095 38.9375C94.2541 38.9375 94.1701 39.3549 94.5273 39.0585C94.4375 38.7349 94.3923 38.4007 94.3928 38.065C94.3803 37.7141 94.3296 37.3656 94.2415 37.0256C94.4097 36.8669 94.5652 36.9295 94.6618 37.2009C94.8075 37.6563 94.8576 38.1365 94.809 38.6119C94.4643 39.5845 94.8342 40.7409 94.4433 41.534C94.5399 41.3796 94.6324 41.2251 94.7207 41.0665C94.7046 41.4998 94.6639 41.9318 94.5988 42.3606C94.5526 42.7446 94.5189 43.1162 94.4979 43.5545L94.4559 43.5086L94.6997 44.0053L94.8006 43.542C94.9433 44.095 94.9916 44.6679 94.9435 45.2368C95.0789 44.7521 95.0701 44.2389 94.9183 43.759C94.7791 43.4557 94.657 43.1449 94.5526 42.8281C94.6583 42.3258 94.8352 41.8409 95.078 41.3879C95.272 41.0291 95.3386 40.6159 95.2671 40.2149C95.4395 40.1648 95.6875 39.4468 95.7757 40.0479C95.7757 40.7951 95.5067 41.3002 95.7295 41.3879C95.8093 40.6115 95.9186 40.9245 96.0111 39.739C95.7211 39.4843 95.5109 38.5826 95.3008 37.7436C95.2104 37.2629 95.1612 36.7755 95.1536 36.2867C95.1367 35.8689 95.1479 35.4505 95.1873 35.0343C95.2093 35.4323 95.2856 35.8256 95.4142 36.2032C95.5235 36.5037 95.6412 36.6665 95.7589 36.558C95.4563 36.0487 95.9733 34.8214 95.553 35.0928C95.553 34.0658 95.3848 32.3543 95.7295 32.1998C95.7912 32.4355 95.8347 32.6756 95.8598 32.9178C95.8598 33.1558 95.8808 33.3937 95.8808 33.6275C95.8808 34.0909 95.8808 34.5375 95.9313 34.9508C95.9313 34.7212 96.0237 34.4916 96.1162 34.6252V35.8525C96.1961 35.3891 96.2675 35.1971 96.3095 34.9759C96.3348 34.8451 96.3489 34.7124 96.3516 34.5793C96.3516 34.4123 96.3306 34.1994 96.3011 33.903C96.2759 33.9782 96.2255 34.1326 96.2003 34.0241C96.1666 33.7277 96.1624 33.352 96.1288 33.0514L96.4651 32.9846C96.3524 32.3704 96.2961 31.7472 96.2969 31.1228C96.2675 30.7471 96.2255 30.3463 96.1582 29.9414C96.1288 29.7369 96.0868 29.524 96.0405 29.3319C95.9943 29.1399 95.9186 28.9145 95.8472 28.735L95.9481 28.8644C95.8833 28.388 95.682 27.9403 95.368 27.5745C95.0231 27.1989 94.7624 26.755 94.603 26.272C94.8636 26.6227 94.9519 26.4014 95.0906 26.272C94.7375 25.6375 94.872 25.2033 94.7459 24.4853C94.809 25.3202 94.2289 24.0679 94.3256 24.6774C94.0271 24.8193 93.527 23.4709 93.2958 22.7654C93.5564 22.1727 94.334 24.8527 94.3676 23.6254C94.1406 22.9032 93.8422 22.8239 93.9473 23.3457C93.8758 23.1203 93.7918 22.8698 93.7077 22.6068C93.6236 22.3438 93.5185 22.0766 93.4345 21.8095C93.3504 21.5423 93.2705 21.2793 93.2117 21.0372C93.1541 20.8264 93.1133 20.6115 93.0898 20.3943C92.796 20.0656 92.5276 19.7154 92.287 19.3465C92.0856 19.0609 91.8247 18.8217 91.522 18.6452C91.8204 19.1587 92.1314 19.0334 92.3164 19.7807C92.102 19.5845 91.875 19.3966 91.6481 19.2129C91.4128 18.784 91.2118 18.3373 91.047 17.8771C90.9047 17.4938 90.7405 17.1189 90.5552 16.7541L91.089 17.3427H91.026C91.2137 17.5154 91.3776 17.7119 91.5135 17.9272C91.6733 18.1526 91.8162 18.3446 91.8919 18.2194C91.7522 18.1106 91.6303 17.981 91.5304 17.8353C91.4286 17.7025 91.3359 17.5631 91.2529 17.4179C91.0672 17.0652 90.8339 16.7394 90.5594 16.4494H90.6224C90.1547 15.8897 89.7593 15.274 89.4455 14.6168C89.2042 14.0687 88.7733 13.6244 88.2307 13.3644C88.4283 13.5899 88.6006 14.2202 88.3905 14.1451C88.2938 13.7276 87.6086 13.018 87.7684 12.9261L88.0332 13.1432C87.6943 12.6353 87.2964 12.1687 86.8479 11.7531C86.5074 11.7155 86.562 12.0244 86.0072 11.6278C84.99 10.3463 86.8479 11.7489 86.2047 10.7929C85.8054 10.4673 85.3641 10.1876 84.9437 9.89126L84.8387 9.5072C84.4739 9.10365 84.0683 8.73854 83.6281 8.41766C83.2135 8.11006 82.7781 7.8311 82.3251 7.58276L81.6483 7.19452L80.9464 6.81882C80.4714 6.56 80.0006 6.26361 79.4878 5.9547C79.5593 5.80441 79.9964 5.90878 80.4546 6.13837C80.874 6.3459 81.281 6.57728 81.6735 6.83134C81.3958 6.4784 81.0407 6.19288 80.6353 5.99644C80.1845 5.76647 79.7615 5.48637 79.3743 5.16154C79.1979 5.03355 79.0093 4.92308 78.8111 4.83175C78.6517 4.76405 78.4854 4.71366 78.3151 4.68147C78.0293 4.6272 77.8485 4.68147 77.8695 4.79001C76.8103 4.33916 77.2516 4.20975 77.1508 4.08452C76.638 4.25567 75.4232 3.47087 74.5321 3.19953L74.5741 2.98662L73.8638 2.81964L73.1408 2.68606C73.4813 2.83634 73.1029 2.89896 73.0567 3.0242L72.7204 2.87391C73.0002 3.12363 73.3255 3.31777 73.6788 3.44582C74.0403 3.59178 74.4093 3.71859 74.7843 3.8257C75.1641 3.92495 75.532 4.06492 75.8814 4.24315C76.2264 4.41495 76.5303 4.65839 76.7725 4.95699C76.3521 4.82758 76.8187 5.19076 76.39 5.0697C76.0789 4.8902 76.0285 4.83175 76.0327 4.73991C75.7595 4.79836 75.192 4.68148 75.8603 5.00709C75.7468 5.19911 75.3685 5.1031 74.8936 4.92359C74.4186 4.74409 73.8343 4.50615 73.3341 4.38091C73.0105 4.10122 73.2501 4.06782 73.6242 4.13044C73.9982 4.21329 74.3773 4.27185 74.7591 4.30577C74.385 4.17636 74.0109 4.22645 73.5317 3.88832L73.7881 3.63367C72.38 3.27049 73.3131 3.76308 72.8928 3.94259C72.38 4.20975 71.7116 3.46251 71.3207 3.3832L71.7411 3.43747C70.7323 2.96992 70.396 3.2037 69.4503 2.92401L69.0677 2.54412C69.4526 2.78958 69.9148 2.88614 70.3666 2.81547C70.6822 2.73102 71.0179 2.76214 71.3123 2.90313C70.4717 2.48568 70.6272 2.33123 71.0643 2.29783C71.5015 2.26443 72.2371 2.29783 72.5565 2.29783C71.8958 2.15197 71.2685 1.88435 70.707 1.50885C70.0893 1.5124 69.4767 1.39612 68.9038 1.16654C68.3303 0.957535 67.7126 0.897193 67.109 0.991208C66.4995 0.824228 67.6933 0.853454 67.0417 0.728218C65.8007 0.45556 64.5271 0.358585 63.2587 0.440177C62.5988 0.381733 62.7207 0.239798 62.5442 0.085341C61.8469 0.00198295 61.1437 -0.0203686 60.4425 0.0185474C59.8162 0.0769905 59.2488 0.164658 58.6771 0.256497C58.1055 0.348336 57.5254 0.486096 56.8781 0.590459C56.5544 0.653077 56.2098 0.711517 55.8399 0.757437L54.6377 0.907719L55.1169 0.640551C54.3855 0.728216 53.7508 0.761611 53.4356 1.08305C53.136 0.998791 52.8188 0.998791 52.5192 1.08305C52.1377 1.16896 51.7649 1.28912 51.4053 1.44206C51.0304 1.59254 50.6473 1.72215 50.2578 1.83029C49.9181 1.94805 49.5557 1.98661 49.1986 1.94299C48.681 2.04577 48.198 2.27698 47.7947 2.61509C47.4665 2.91393 47.1039 3.17316 46.7144 3.38738C46.6598 3.26632 46.9078 2.89061 46.2941 3.09098C44.5434 3.94185 42.8576 4.9185 41.2501 6.01314C39.5645 7.16299 37.9773 8.44893 36.5045 9.85786C36.546 9.73524 36.6134 9.62281 36.7021 9.52807C36.1779 9.99921 35.6811 10.4996 35.2141 11.0267C34.7938 11.5694 34.3272 12.0954 33.9531 12.6423C33.1545 13.7276 32.4399 14.7838 31.6959 15.6896C31.6034 15.8942 31.3933 16.2866 31.2756 16.5955C31.1579 16.9044 31.1032 17.1507 31.3008 17.0422C31.6287 16.6247 31.9145 16.7166 32.0448 16.8502C31.8918 17.1598 31.7147 17.457 31.5152 17.7393C31.4319 17.8563 31.3145 17.9452 31.1789 17.994C30.9898 18.0691 30.809 18.0566 30.498 18.6702C30.2037 18.7454 30.2374 18.52 30.3214 18.2528C30.4055 17.9856 30.5274 17.6767 30.3593 17.5682C30.0734 18.186 29.8422 18.8205 29.6027 19.4592C28.9427 20.3901 28.6821 21.5214 28.1105 22.3438C28.329 21.9598 27.8625 22.0808 28.3122 21.4713C28.2828 21.584 28.3417 21.5256 28.3122 21.6383C28.5159 21.2763 28.6606 20.8847 28.741 20.4778C28.7775 20.087 28.8903 19.707 29.073 19.359C28.9301 19.6596 28.804 20.0019 28.6527 20.3526C28.5014 20.7032 28.3585 21.0539 28.2113 21.4087C27.9423 22.1267 27.6271 22.803 27.3917 23.3457C27.7658 23.2121 27.1773 24.285 27.2488 24.6607L27.1983 24.7191C27.3202 24.765 27.1983 25.483 27.1605 25.7043L26.7024 25.8671C26.5973 26.3722 26.9293 25.7878 26.8242 26.2845C26.7162 26.9242 26.5759 27.5582 26.4039 28.1839C26.2148 28.9228 25.9836 29.5782 25.765 29.6367C25.7233 29.9759 25.7106 30.3181 25.7272 30.6594C25.7348 31.0049 25.7081 31.3503 25.6473 31.6905C25.5548 31.607 25.5422 31.3816 25.496 31.344C25.1345 33.2601 25.1513 35.6563 25 37.5056L25.0504 38.0567L25.1219 38.5868C25.1723 38.9333 25.2186 39.2631 25.2732 39.572C25.3756 40.1233 25.529 40.6641 25.7314 41.1875C25.6557 40.7951 25.6095 39.6263 25.9121 40.3234C26.1265 40.6991 26.1223 41.3169 26.303 41.9055C26.0803 41.797 26.3745 43.4752 26.0298 42.2854C25.6095 42.7029 26.6393 44.882 26.2232 44.9613C26.4004 45.331 26.5412 45.7168 26.6435 46.1134C26.7843 46.5975 26.9922 47.0598 27.2614 47.4869C27.1227 47.6872 26.8411 46.6186 26.7192 46.652L27.0218 47.3992L26.8999 47.4409C27.0073 47.9773 27.2487 48.4783 27.6019 48.8978C27.8736 49.1812 28.1133 49.4934 28.3164 49.8288H28.2534L28.5644 50.3673L27.9507 49.8371C28.3711 50.7263 28.8629 51.0895 29.4135 51.9995L29.3589 52.1498C29.4934 52.3251 29.6195 52.5046 29.7792 52.6758C29.7077 52.5881 29.6447 52.5798 29.6531 52.6549C29.9897 52.946 30.274 53.2918 30.4938 53.6777C30.7122 54.0511 30.997 54.3821 31.3344 54.6545C31.5194 55.0385 31.3344 55.5854 31.9229 55.9068L31.5026 56.0529C31.3498 55.8659 31.2225 55.6595 31.1243 55.4393C31.0858 55.3472 31.0604 55.2503 31.0486 55.1513C31.0234 54.9968 30.9813 54.8423 30.519 54.237C30.7279 55.1774 31.1284 56.0653 31.6959 56.8461C32.3551 57.842 33.093 58.7843 33.9027 59.6639C34.2263 59.9519 34.5836 60.2943 34.9409 60.6616C35.2982 61.029 35.6555 61.4297 36.0253 61.772C36.344 62.0967 36.6884 62.3954 37.0552 62.6654C37.298 62.8568 37.5885 62.9794 37.8958 63.0202L37.5974 63.0953C38.2615 63.7883 38.9845 64.4187 39.6991 65.0574C41.7167 66.4224 43.8351 67.8334 45.6594 68.3051L46.0377 68.7017C46.6597 68.7764 47.2742 68.9035 47.8745 69.0816C48.2234 69.1734 48.5807 69.282 48.9506 69.3905L50.0687 69.6785C50.4285 69.7782 50.7932 69.859 51.1615 69.9207C51.5188 69.9874 51.8593 70.0417 52.1703 70.0793C52.6745 70.1496 53.1881 70.1097 53.6751 69.9624C54.1753 70.167 54.0955 70.217 53.8475 70.2588C53.6181 70.2582 53.3895 70.2848 53.1665 70.3381C53.3828 70.3998 53.6058 70.4348 53.8307 70.4425H54.6083C55.0848 70.4115 55.5609 70.5081 55.987 70.7222C55.987 70.7848 55.7011 70.7848 55.4868 70.7806C55.2724 70.7764 55.1211 70.7806 55.3607 70.8474C55.8945 71.1647 56.2013 70.7055 56.8108 71.0561C56.6805 70.9058 56.9537 70.8182 57.3699 70.7305C57.8511 70.6446 58.3395 70.6041 58.8284 70.6095C58.7426 70.6111 58.6576 70.5925 58.5804 70.5552C58.4543 70.359 59.1521 70.4258 59.5388 70.4007C59.501 70.4396 59.4501 70.4633 59.3959 70.4675C61.9419 70.3717 64.474 70.049 66.9619 69.5032C69.5014 68.9304 71.9896 68.1528 74.4018 67.178L73.6158 67.7207C73.9964 67.4857 74.3956 67.2819 74.8095 67.1112C75.2298 66.915 75.6502 66.7564 75.8309 66.6938L75.7468 66.7606C76.0276 66.7203 76.2968 66.6222 76.5371 66.4725C76.704 66.3654 76.8577 66.2393 76.9952 66.0968C77.2659 65.7947 77.6378 65.6003 78.0419 65.5499L77.8863 65.6961C78.5841 65.2494 79.202 64.9947 79.7736 64.6691C80.0679 64.5105 80.3537 64.3477 80.6437 64.1557C80.9425 63.931 81.2236 63.684 81.4844 63.4168C81.8178 63.2014 82.1728 63.021 82.5436 62.8783C82.8375 62.791 83.1197 62.6691 83.3843 62.5151C83.712 62.2693 83.9377 61.9129 84.019 61.5132L83.7458 61.747C83.3044 61.8472 84.1661 61.0665 84.4856 60.6282C83.956 60.6282 83.6953 60.0939 82.4133 60.8077C82.1756 61.0939 81.8348 61.2767 81.4634 61.317C81.0664 61.3759 80.6969 61.5536 80.4041 61.8263C80.2906 62.2437 79.9039 62.4107 79.4752 62.6194C78.9822 62.7827 78.5521 63.0933 78.2436 63.5086C78.3781 63.2039 78.1007 63.3583 77.8443 63.4543C77.5879 63.5504 77.3693 63.6297 77.6594 63.2331C77.4072 63.2331 76.9784 63.5921 76.495 63.9678C76.0639 64.3336 75.5575 64.6015 75.0113 64.7526C75.0995 64.6274 75.0365 64.5773 75.1878 64.4437C74.2547 65.1409 74.3808 64.5898 73.6326 64.9655L73.8049 65.2661C73.5527 65.5082 73.3594 65.3203 73.1198 65.4915C73.3467 65.4372 73.8638 65.3913 73.683 65.6251C73.3788 65.8731 73.0491 66.0885 72.6994 66.268C72.6448 66.1469 72.897 65.9716 73.0609 65.8505C73.0609 65.8505 72.2202 66.197 72.0815 66.0592C72.3949 65.8728 72.6783 65.6406 72.9222 65.3704C71.7873 65.7587 72.7877 65.3078 72.153 65.287C72.4598 65.6126 71.2535 65.8171 70.6818 66.1219C70.5683 65.9966 71.1022 65.9173 71.1988 65.742C70.6608 65.6395 70.1037 65.7472 69.6436 66.0425C69.1351 66.3813 68.5634 66.6155 67.9623 66.7313C67.9623 66.6729 68.1556 66.581 68.2439 66.5393C67.9445 66.6623 67.6219 66.7193 67.2981 66.7063C67.0351 66.6883 66.7735 66.7573 66.5542 66.9025C65.8522 66.9734 66.3398 66.485 65.2932 66.6771C65.4823 66.8566 65.1671 66.89 64.8098 66.9317C64.4525 66.9735 64.049 66.9943 64.0574 67.2197C63.7716 67.1613 63.4899 67.1196 63.2167 67.0486C62.5063 67.345 63.4815 67.7833 62.0314 67.9336C60.7031 67.8084 62.1238 67.1989 61.3504 66.986L61.0436 67.2365L60.4089 67.0778L60.5014 67.0569C60.1231 67.1363 59.4337 67.0569 59.4379 66.915C59.4421 66.7731 59.9087 66.8232 59.9675 66.723C59.449 66.7638 58.9277 66.6955 58.4375 66.5226C58.1489 66.4485 57.8528 66.4065 57.5548 66.3974C57.3078 66.3678 57.0586 66.4319 56.8571 66.5769C56.6404 66.4923 56.4185 66.4212 56.1929 66.364C55.9786 66.293 55.823 66.2095 55.8861 66.1135C55.7011 66.2304 55.2976 66.1385 54.8773 66.03C54.5235 65.896 54.1502 65.8199 53.7718 65.8046C53.8559 65.7127 53.4356 65.4748 53.0615 65.4456C53.5154 65.6835 53.1918 65.7128 52.8219 65.7795C52.5245 65.5949 52.2017 65.4542 51.8635 65.3621C51.502 65.2202 51.1784 65.0657 51.1447 64.8695C50.4386 64.8445 50.5899 65.1617 50.3629 65.3537C50.0182 64.9947 48.6816 64.5188 49.0767 64.2392C49.4004 64.427 50.1612 64.7944 50.1065 64.4854C49.497 64.093 49.7787 64.4855 49.2154 64.3101C49.2827 64.2642 48.9464 63.9219 49.0935 63.8551C48.6756 63.7243 48.277 63.539 47.9082 63.3041C48.215 63.5462 48.0763 63.5587 47.9082 63.5587C47.74 63.5587 47.5299 63.517 47.7022 63.6965C47.9628 63.7173 48.236 63.7173 48.4966 63.7257C49.3373 64.068 48.5807 64.0096 48.8539 64.2392C47.3701 63.6839 47.4878 64.1765 46.0419 63.6672C45.8233 63.4627 45.4366 63.1162 45.3063 63.0285C45.7561 63.2623 45.8485 62.8824 45.6384 62.6821C45.437 62.6536 45.2438 62.5839 45.0709 62.4775C44.9154 62.3704 44.7742 62.2442 44.6506 62.1018C44.4285 61.8248 44.1899 61.5614 43.936 61.3128C44.3774 61.7303 43.9865 61.7303 43.7511 61.7052C42.4522 61.0624 43.3728 61.2627 42.9608 60.766C42.5512 60.4709 42.1609 60.1502 41.7923 59.8058C41.4434 59.4927 41.1618 59.1546 40.8676 58.8499C40.5734 58.5451 40.3085 58.2362 40.0269 57.9482C39.7453 57.6601 39.4216 57.3846 39.0812 57.1133C39.1905 57.393 39.2955 57.6852 39.4216 57.9482L39.842 57.9064C40.1362 58.541 39.2535 58.3531 38.8248 58.2362C38.8248 58.0943 38.0303 57.322 38.4633 57.5224C38.1901 57.2886 37.8958 57.0715 37.6226 56.8294C37.6226 57.0506 38.1522 57.514 37.6899 57.2469C37.5175 56.9171 36.8492 56.0195 37.4545 56.4119C37.2779 56.1906 37.0762 55.9903 36.8534 55.815C36.66 55.6689 36.5171 55.5896 36.4793 55.7023C35.9077 54.9759 36.8492 55.5311 37.2191 55.744C36.7693 55.1805 37.0678 55.0636 37.2611 55.1805L36.6306 54.4207C36.8324 54.5376 36.9375 54.4541 37.135 54.5668C36.9911 54.3159 36.8032 54.0925 36.5802 53.9072C36.3749 53.7267 36.2371 53.4825 36.1893 53.2143L35.8236 53.1684C35.0334 51.5445 35.1679 51.6864 34.3945 50.2212L34.3482 50.5635C34.169 50.4028 34.0258 50.2065 33.9279 49.9874C33.8588 49.8535 33.8106 49.7099 33.785 49.5616C33.74 49.0653 33.5818 48.5856 33.3226 48.159L32.9863 47.6037C32.8855 47.4409 32.8014 47.299 32.7173 47.1863C32.5534 46.9734 32.4147 46.8941 32.297 47.011C32.1953 46.8774 32.1296 46.7203 32.1061 46.5545C32.0826 46.3887 32.102 46.2196 32.1625 46.0634C31.8598 45.7169 31.2377 44.9154 31.2714 44.1848C31.4899 44.6023 31.6581 44.9529 31.8472 45.3537C32.1036 45.1408 31.4942 43.901 31.4815 43.1704C31.3596 42.945 31.1032 42.4608 30.8468 41.9181C30.5904 41.3754 30.313 40.7701 30.1323 40.3276C29.9179 40.7743 29.5228 40.6824 29.1613 39.8642C29.2706 39.9185 29.2832 39.6263 29.2874 39.2506C29.292 38.8711 29.3158 38.4921 29.3589 38.1151C29.4639 38.2529 29.5522 37.9231 29.6531 37.6976C29.754 37.4722 29.8296 37.4013 29.9053 37.9982C29.8296 38.353 29.569 38.5367 29.7035 39.0084C29.8239 38.7674 29.9129 38.5121 29.9683 38.2487L30.2163 37.1299C30.3913 37.3859 30.4837 37.6888 30.4811 37.9982C30.3803 37.802 30.3256 37.9314 30.25 37.9565Z" fill="white"/>
</svg>
