<svg width="441" height="438" viewBox="0 0 441 438" fill="none" xmlns="http://www.w3.org/2000/svg">
<path opacity="0.4" d="M32.3967 233.969C34.4718 242.718 34.9905 231.885 36.7284 233.171C36.2096 230.855 36.4171 225.889 35.3277 228.256C36.0327 226.974 36.3565 225.52 36.2615 224.062C36.2763 222.341 36.1636 220.621 35.9243 218.916C35.153 215.753 35.3701 212.432 36.5468 209.395C36.2615 209.137 35.0683 211.968 34.5496 208.443C34.4082 206.872 34.7424 205.295 35.5093 203.914C36.0733 203.253 36.5686 202.537 36.9878 201.778C36.6097 200.09 36.4787 198.357 36.5987 196.632C36.5987 194.573 36.9878 192.823 37.1434 193.235C36.9618 189.684 33.5639 196.4 33.0971 191.382C31.5408 187.702 34.2902 183.662 34.5496 179.674C36.9359 175.402 34.5496 184.486 34.783 186.519L35.7427 179.931C36.0281 177.744 36.5468 175.583 36.9359 173.395C38.9591 169.921 38.4144 175.608 37.1693 179.288C38.4384 176.879 39.2641 174.265 39.6075 171.568C40.0401 169.67 39.9686 167.693 39.4 165.83C40.2386 163.213 41.3423 160.687 42.6942 158.29C42.4607 161.533 45.288 162.305 44.3023 166.988C41.7085 174.399 43.0573 163.591 40.5932 169.844L42.0716 170.899C40.3597 173.473 41.0601 176.046 40.3597 178.953C39.5038 180.497 39.8669 178.439 39.9188 177.255C39.1925 179.957 38.57 182.402 38.0772 184.64C37.4935 186.842 37.4935 189.155 38.0772 191.356C38.4144 190.456 38.6997 189.504 38.985 188.526C39.2703 187.548 39.5816 186.519 39.841 185.464C40.3857 183.405 40.7229 181.218 41.1897 179.211C42.2013 175.197 42.9795 171.645 44.5098 170.436L45.5992 163.025L47.0518 155.64C46.2996 155.306 43.2389 159.757 43.6279 155.331C46.2217 154.405 48.8156 150.725 51.4094 145.604C48.4265 146.582 53.666 136.444 50.7869 138.219C50.7547 139.037 50.4681 139.825 49.9666 140.474C49.465 141.124 48.7729 141.604 47.9855 141.848C50.3718 136.701 46.4552 140.252 47.7521 137.37C50.3459 132.738 50.6831 133.073 50.9166 133.356C51.15 133.639 51.5391 133.973 54.3404 129.702C54.2024 131.609 53.96 133.508 53.6141 135.389C53.2322 138.072 52.6777 140.727 51.9541 143.34C53.0435 143.34 54.2366 138.194 56.3636 136.753C53.7697 139.068 55.6114 133.768 53.7697 135.878C56.7526 128.158 59.7874 118.869 65.2863 110.377C66.1422 111.998 64.3006 115.832 62.6924 119.152C61.0843 122.471 60.4618 125.533 62.9 125.25C64.9491 120.927 63.704 120.104 66.0904 117.042C68.2406 115.549 70.0157 113.586 71.278 111.303C72.1858 109.965 73.1196 108.499 74.0534 107.032C74.9959 105.612 76.0177 104.247 77.1141 102.94L74.5202 104.51C76.2593 101.585 78.4872 98.9745 81.1085 96.7904L80.901 97.6396L82.4054 95.0663C82.7945 94.809 82.9242 94.809 83.0279 94.8862C84.3767 91.8241 90.8094 86.8063 94.9335 82.3803C94.4148 81.7885 93.2216 82.7149 91.9766 84.1301C90.8354 85.5922 89.5962 86.9763 88.2674 88.273C87.8524 88.4274 86.5037 89.328 85.4143 89.8941C84.3249 90.4602 83.5208 90.7176 84.0655 89.3023C86.5379 86.8188 88.8264 84.1615 90.9131 81.351C93.3178 78.4577 95.9832 75.7877 98.8761 73.374C98.0461 73.7858 97.2161 74.2489 96.2823 74.7378C97.683 72.1646 101.107 70.2347 104.323 67.5843C107.721 65.8602 106.917 67.1211 105.802 68.5621C104.686 70.0031 103.389 71.7787 105.438 70.7494C104.012 73.7086 98.9799 75.5356 99.7062 77.6456C101.366 77.2339 103.078 76.8994 104.738 76.5648C105.857 74.9427 107.399 73.6529 109.2 72.8337C110.752 72.2245 112.224 71.4295 113.583 70.4663L110.652 71.3154C110.107 69.5399 113.09 69.0768 114.309 68.5106L111.275 67.5071C109.669 68.502 108.233 69.7442 107.021 71.1868C106.063 72.4415 104.713 73.3463 103.182 73.76C104.896 72.0893 106.395 70.2137 107.643 68.1761C109.249 65.9012 111.305 63.975 113.687 62.515C114.569 63.1069 112.39 63.8016 112.053 65.0882C113.663 64.3689 115.151 63.4053 116.462 62.232C117.966 60.7198 119.721 59.4751 121.65 58.5523C119.471 60.6623 116.047 64.0075 119.912 63.1841L121.209 60.0962C123.336 59.0926 122.921 60.3021 123.803 59.8646C126.889 58.5523 122.143 58.5008 126.993 56.3393C127.849 56.3393 129.587 55.8246 129.12 56.5709C134.489 53.7918 131.403 54.6924 136.045 51.27C131.506 53.5345 129.976 51.0385 134.645 48.3366C141.596 45.3516 145.824 41.852 151.582 42.341L154.306 39.9479C152.853 42.341 159.053 39.0472 161.439 38.6098C162.113 39.4332 159.416 40.3081 156.692 41.3374C153.969 42.3667 151.297 43.9106 151.842 45.3001C156.511 43.8591 154.851 45.5575 153.709 46.947C158.482 44.8113 154.747 44.065 156.511 42.0579C156.796 42.8299 165.2 39.4847 162.736 42.0579C167.042 40.8227 167.275 38.7642 170.517 38.1981C170.312 38.6648 170.207 39.1685 170.207 39.6777C170.207 40.1868 170.312 40.6905 170.517 41.1573C170.725 40.3853 175.005 40.1022 175.705 40.0508C174.875 39.8449 176.846 38.0694 173.111 39.459C173.682 37.7092 182.034 37.4261 181.567 36.1652C181.93 36.9887 184.161 36.757 186.547 36.2939L190.49 35.5476C191.68 35.3503 192.888 35.2728 194.095 35.3161C193.628 33.2575 191.761 33.7978 189.841 34.647C187.922 35.4962 185.899 36.4483 184.913 34.8271C190.101 32.2539 203.07 32.0738 212.044 29.9895C219.826 30.607 212.044 31.6106 213.704 33.1288C212.233 33.3238 210.752 33.4355 209.269 33.4633H205.923C203.56 33.4159 201.2 33.6492 198.894 34.1581C200.554 34.1581 202.499 34.1581 204.522 34.1581C206.545 34.1581 208.672 33.7978 210.773 33.7206C214.32 33.4966 217.847 33.0324 221.33 32.3311C228.671 32.3311 229.111 36.8343 237.879 36.5255C236.867 35.0587 237.1 34.6728 234.403 33.9523C236.952 33.9146 239.496 34.1911 241.977 34.7757C243.637 34.1066 238.19 33.2575 241.795 32.9229C243.144 33.3604 246.049 33.9008 245.349 34.7499H244.752C247.207 34.554 249.647 35.2692 251.6 36.7571C252.469 37.3791 253.469 37.7973 254.525 37.98C255.581 38.1628 256.665 38.1054 257.695 37.8121C257.254 37.0144 255.568 37.5033 253.934 36.7313C252.767 35.3933 257.462 34.8529 260.886 35.1617C260.082 35.9851 263.765 35.9079 266.073 36.8857C266.644 37.8636 265.191 37.5805 263.479 37.1688C261.996 36.708 260.433 36.559 258.888 36.7313C260.989 37.3232 263.09 37.7349 265.14 38.4554L263.895 37.8378L271.105 38.2495C266.203 37.4261 269.316 35.6763 271.494 36.1395C276.215 37.7863 280.832 39.7677 279.717 41.2859C280.858 39.7163 286.616 42.0064 290.87 43.1901C286.59 40.9257 290.87 41.569 292.375 41.5947L298.314 46.0979C291.155 43.5247 299.144 48.1822 297.017 48.5424C295.401 48.8294 293.734 48.5278 292.323 47.6933C291.467 47.2815 290.585 46.7926 289.729 46.3295L287.005 45.0171C289.22 47.2209 292.115 48.6251 295.228 49.0056C296.549 49.176 297.858 49.4339 299.144 49.7776C300.593 50.2239 301.935 50.9594 303.087 51.9391C302.75 52.6596 301.79 53.2514 299.274 51.7847C300.437 52.4751 301.723 52.938 303.061 53.1485C305.215 53.6625 307.227 54.6472 308.949 56.0305C308.197 54.9755 306.692 52.2479 310.998 53.8947L315.2 58.5266C320.803 62.5923 318.287 57.9604 323.682 60.2506L321.088 57.0598C321.788 56.468 323.474 57.523 325.108 58.5266C326.743 59.5301 328.273 60.6366 328.895 59.8646C325.964 57.6516 323.345 57.9604 320.44 55.4129C320.18 53.0456 325.108 57.137 327.521 57.4972C329.338 58.9777 331.07 60.5584 332.708 62.232C333.616 63.2613 334.291 64.1619 336.158 66.6065C335.328 67.8674 332.968 67.0182 330.478 66.6065C327.988 66.1948 325.679 65.8602 325.108 67.7901C331.567 71.4184 340.438 77.6971 343.265 81.7628C348.764 85.5969 349.853 83.6155 350.294 81.7628C351.944 82.9529 353.337 84.4576 354.393 86.1887L351.436 84.6705C354.834 87.2437 357.35 89.328 359.943 91.4896C362.77 93.9427 365.374 96.6378 367.725 99.5437C371.304 103.095 371.356 100.496 371.693 98.6174L375.325 102.812L375.091 101.911C376.207 101.911 377.4 102.863 378.593 104.304C379.786 105.745 380.824 107.675 381.887 109.219C381.239 109.682 379.786 107.932 379.501 108.396C381.064 111.697 383.197 114.701 385.804 117.273C385.466 117.479 384.611 117.273 383.651 116.733C382.484 115.73 381.584 114.457 381.031 113.027C381.031 112.59 381.316 112.59 381.264 112.153L376.673 107.392C378.741 109.526 380.332 112.069 381.342 114.854C381.965 116.887 381.628 118.354 380.798 118.791C385.544 124.581 379.267 112.539 384.585 119.692C384.945 121.137 385.405 122.555 385.959 123.938C386.478 125.302 387.023 126.511 387.619 127.823C388.761 130.397 390.213 132.481 391.251 134.694C392.29 136.703 393.157 138.795 393.845 140.947C394.415 142.923 394.415 145.018 393.845 146.994L396.438 150.519C397.32 151.754 398.15 153.093 399.032 154.559C399.914 156.026 400.796 157.57 401.626 159.268C402.449 161.091 403.177 162.955 403.805 164.852C404.583 164.595 405.179 165.907 405.776 167.091C406.373 168.275 406.865 169.433 407.747 168.738C407.368 164.852 406.042 161.116 403.883 157.853C401.784 155.015 400.591 151.618 400.459 148.1C398.306 145.013 397.554 146.711 396.101 145.527C395.45 144.226 394.903 142.875 394.467 141.487C394.078 140.329 393.974 139.429 394.311 138.914C396.464 142.053 397.398 142.182 398.539 142.491C399.681 142.8 400.718 143.494 402.689 147.92C402.767 146.041 402.337 144.176 401.444 142.517L399.966 138.914C399.447 137.756 398.98 136.727 398.669 135.878C399.784 136.495 400.122 135.157 399.655 132.816C401.13 134.04 402.485 135.402 403.701 136.881C405.102 138.554 406.45 140.329 407.566 141.487C406.476 140.818 406.84 142.774 406.087 142.156C407.099 143.597 408.214 145.013 409.174 146.505L412.105 151.008C412.287 154.379 411.482 155.563 410.056 154.251C410.86 157.004 412.312 160.581 413.48 163.514C414.647 166.448 415.088 168.892 413.947 169.201C416.229 176.252 414.725 166.628 415.217 165.727L415.503 166.319C414.777 163.746 413.817 161.353 412.909 158.857C414.102 157.982 414.647 160.195 415.217 162.639C415.788 165.084 416.281 167.786 417.811 168.094C420.405 168.094 420.794 170.874 420.69 174.347C420.149 177.761 420.193 181.241 420.82 184.64C419.212 182.762 417.526 180.935 415.918 179.159L417.863 184.306C415.788 181.501 413.428 181.99 410.964 177.718C411.664 181.347 412.416 185.772 412.805 189.89C413.039 191.948 413.324 193.93 413.557 195.654C413.688 197.145 413.931 198.624 414.284 200.08C413.272 202.061 412.183 202.987 410.86 202.318C411.598 203.833 412.03 205.477 412.131 207.156C412.212 208.575 412.134 209.999 411.897 211.402C411.292 214.181 410.901 217.003 410.73 219.842C412.261 226.455 412.442 213.126 414.362 217.912C413.454 219.971 414.362 223.599 414.647 225.452C414.393 223.47 414.393 221.464 414.647 219.482C414.88 216.909 415.347 213.769 415.399 211.299C415.633 214.979 417.344 214.49 418.123 215.493C418.252 213.409 418.123 211.325 418.123 209.24C419.238 209.369 419.42 211.299 419.497 213.538C419.302 215.638 419.433 217.756 419.886 219.816C417.863 217.989 417.811 219.019 415.788 217.243C416.873 223.172 416.652 229.265 415.14 235.101C414.128 237.674 414.362 232.811 413.765 231.344C412.442 232.502 414.284 236.671 412.52 237.597C411.327 236.697 412.65 234.355 412.364 232.451C411.82 237.597 411.327 242.744 410.419 247.684C409.615 247.684 409.874 243.773 410.419 241.431C409.72 243.468 409.387 245.611 409.433 247.761C409.646 250.256 410.151 252.717 410.938 255.095C410.245 257.496 409.378 259.844 408.344 262.12C407.41 263.921 406.606 264.693 406.217 263.818C406.217 266.263 407.255 264.873 408.059 265.028C406.191 271.821 408.577 273.236 407.566 277.431L409.848 274.677C406.528 280.982 411.923 276.942 409.018 282.577C408.395 281.928 407.59 281.479 406.708 281.286C405.825 281.094 404.905 281.167 404.064 281.496C405.231 282.912 402.767 286.18 401.937 288.65C403.986 287.621 401.289 294.466 404.272 290.992C403.812 293.537 402.973 296 401.782 298.3C400.739 300.131 400.178 302.192 400.147 304.295C401.756 301.722 399.499 309.905 401.496 308.078C399.032 313.662 395.479 316.492 394.726 314.254C395.738 312.452 397.813 309.776 396.542 309.442C394.986 312.71 393.637 316.081 391.899 319.246C389.876 321.201 387.879 324.032 386.141 323.491C386.141 327.48 379.708 331.211 380.123 334.788C380.97 332.183 382.739 329.971 385.103 328.561L384.507 330.182C384.675 329.94 384.856 329.708 385.052 329.487C385.052 331.366 385.181 333.295 385.052 335.174C388.553 332.009 383.781 333.373 387.204 327.969C389.928 326.373 389.202 329.616 388.346 332.832C387.49 336.049 386.374 339.111 388.838 337.181C392.184 333.553 389.383 332.755 390.576 328.818L389.954 329.667C391.251 326.94 392.288 324.083 393.352 321.278C394.441 321.407 393.819 324.186 393.819 324.186C395.141 321.793 396.283 319.966 397.32 318.396C398.358 316.827 399.162 315.437 400.07 314.073C400.977 312.71 401.963 311.32 402.949 309.57C403.934 307.821 404.998 305.762 406.269 303.086C405.569 303.729 401.859 304.604 403.468 299.663C404.064 295.906 405.906 296.164 407.177 293.308C406.865 295.16 407.851 297.348 405.932 299.303L407.955 299.895C407.619 302.471 407.751 305.085 408.344 307.615C408.577 309.339 408.603 311.423 406.165 317.136C406.736 317.727 406.165 320.172 405.076 323.157C403.708 326.403 402.05 329.52 400.122 332.472C401.107 331.777 402.015 331.031 402.949 330.311C402.43 334.093 401.704 334.067 400.9 334.248C400.096 334.428 399.084 334.788 397.657 339.24C396.568 339.651 395.375 340.217 394.156 340.732C393.024 341.187 391.863 341.565 390.68 341.864C388.605 342.276 387.23 341.864 387.671 339.162C386.086 340.953 384.759 342.954 383.729 345.107C382.738 347.117 381.556 349.03 380.201 350.819C376.336 352.08 379.267 347.937 377.063 347.036C375.985 348.604 375.073 350.277 374.339 352.029C373.768 353.367 373.872 354.113 375.351 353.418L369.722 358.565C369.229 358.384 370.967 356.326 371.693 355.554C370.329 356.852 369.167 358.344 368.244 359.98C367.304 361.289 366.545 362.717 365.987 364.226C366.324 363.685 367.362 362.038 368.192 361.652C366.349 364.282 364.784 367.093 363.523 370.041C365.883 365.821 368.062 367.339 370.345 362.733C370.551 363.449 370.519 364.211 370.252 364.907C369.986 365.603 369.499 366.194 368.866 366.593C372.731 364.612 375.143 361.266 377.452 360.983C376.507 361.594 375.696 362.387 375.068 363.315C374.439 364.244 374.006 365.289 373.794 366.387C376.674 363.825 379.117 360.818 381.031 357.484C383.366 358.796 388.112 347.551 387.723 352.466C387.542 351.9 388.164 350.742 389.046 349.455C389.848 348.177 390.816 347.009 391.925 345.981C392.314 346.419 391.769 347.963 391.069 349.816C390.269 351.539 389.602 353.319 389.072 355.142C382.432 365.795 387.697 353.753 385.259 355.554C384.325 356.815 383.443 358.127 382.458 359.311L379.475 362.965C380.383 362.476 378.411 367.03 382.302 362.244C381.804 364.34 380.925 366.328 379.708 368.111C378.303 370.278 376.446 372.121 374.261 373.515C374.054 374.879 376.414 372.177 377.218 371.405C377.037 372.692 374.806 379.125 380.564 373.566C378.93 375.136 382.302 369.912 378.852 372.306C380.798 369.732 387.127 363.917 386.037 367.468C388.346 364.303 391.847 357.818 393.533 355.142C395.038 355.142 392.288 357.587 391.77 359.208L394.882 354.576L397.787 349.816L394.908 351.668C397.254 349.001 399.02 345.883 400.096 342.508C401.081 339.42 401.756 336.435 403.027 333.45C404.349 335.251 401.678 339.934 400.433 344.154C404.687 342.044 400.77 341.144 404.609 335.611C405.413 335.045 405.958 335.097 406.269 335.792L407.332 330.182C408.292 328.921 408.266 329.925 408.033 330.568C409.278 325.988 408.603 325.704 408.266 325.138C407.929 324.572 407.903 323.749 410.16 318.062C406.035 324.16 408.707 324.315 405.543 329.667C402.482 332.035 406.71 322.256 406.554 320.223C409.563 315.077 412.805 315.875 414.336 308.258C413.142 313.404 416.099 309.236 413.039 316.184C412.105 320.455 414.906 314.588 416.255 314.228C416.722 312.221 413.661 314.537 416.255 309.545L416.463 309.853L417.215 305.247L417.785 300.564C418.802 298.594 419.61 296.524 420.198 294.388C420.742 292.201 421.183 289.911 421.65 287.749C422.117 285.588 422.506 283.504 422.999 281.625C423.409 279.934 424.14 278.336 425.152 276.916L422.714 277.662C423.362 275.089 423.933 271.976 424.477 269.042C424.737 267.575 424.97 266.16 425.204 264.873C425.437 263.587 425.463 262.429 425.515 261.477C426.114 262.418 426.362 263.538 426.215 264.642C426.215 266.109 425.904 267.91 425.723 269.788C427.795 261.892 428.184 253.654 426.864 245.6C425.496 248.59 424.284 251.647 423.232 254.761C422.786 253.672 422.596 252.496 422.676 251.323C422.757 250.15 423.107 249.011 423.699 247.993C425.082 245.574 425.62 242.77 425.23 240.016C427.357 240.016 426.838 242.589 429.043 240.762C428.488 238.767 428.209 236.707 428.213 234.638C428.135 232.475 427.822 230.327 427.279 228.231C428.316 227.253 429.276 227.639 429.873 229.311C430.771 232.119 431.08 235.079 430.78 238.009C428.653 244.005 430.936 251.132 428.524 256.022C429.12 255.069 429.691 254.117 430.236 253.14C430.136 255.81 429.885 258.474 429.483 261.117C429.198 263.484 428.991 265.774 428.861 268.476L428.602 268.193L430.106 271.255L430.729 268.399C431.609 271.808 431.907 275.339 431.61 278.846C432.446 275.858 432.392 272.695 431.455 269.737C430.596 267.867 429.843 265.951 429.198 263.999C429.85 260.902 430.942 257.913 432.44 255.121C433.638 252.909 434.049 250.362 433.608 247.89C434.671 247.581 436.202 243.155 436.746 246.861C436.746 251.467 435.086 254.581 436.461 255.121C436.954 250.335 437.628 252.265 438.199 244.957C436.409 243.387 435.112 237.829 433.815 232.657C433.258 229.694 432.954 226.69 432.907 223.676C432.803 221.101 432.872 218.522 433.115 215.956C433.251 218.41 433.722 220.834 434.515 223.161C435.19 225.014 435.916 226.018 436.642 225.349C434.775 222.209 437.965 214.644 435.371 216.317C435.371 209.987 434.334 199.436 436.461 198.484C436.842 199.937 437.11 201.417 437.265 202.91C437.265 204.377 437.395 205.844 437.395 207.285C437.395 210.141 437.395 212.894 437.706 215.442C437.706 214.027 438.277 212.611 438.847 213.435V221C439.34 218.144 439.781 216.96 440.04 215.596C440.196 214.79 440.283 213.972 440.3 213.152C440.3 212.122 440.17 210.81 439.988 208.983C439.833 209.446 439.522 210.398 439.366 209.729C439.158 207.902 439.133 205.586 438.925 203.734L441 203.322C440.304 199.535 439.957 195.694 439.962 191.845C439.781 189.529 439.522 187.059 439.107 184.563C438.925 183.302 438.666 181.99 438.38 180.806C438.095 179.622 437.628 178.233 437.187 177.126L437.81 177.924C437.41 174.988 436.168 172.228 434.23 169.973C432.102 167.658 430.493 164.922 429.509 161.944C431.118 164.106 431.662 162.742 432.518 161.944C430.339 158.033 431.169 155.357 430.391 150.931C430.78 156.077 427.201 148.358 427.798 152.115C425.956 152.99 422.869 144.678 421.443 140.329C423.051 136.675 427.849 153.195 428.057 145.63C426.656 141.179 424.815 140.69 425.463 143.906C425.022 142.517 424.503 140.973 423.985 139.352C423.466 137.73 422.817 136.084 422.299 134.437C421.78 132.79 421.287 131.169 420.924 129.676C420.568 128.377 420.317 127.052 420.172 125.713C418.359 123.687 416.702 121.528 415.217 119.255C413.975 117.494 412.365 116.02 410.497 114.932C412.338 118.097 414.258 117.325 415.399 121.931C414.076 120.721 412.676 119.563 411.275 118.431C409.823 115.787 408.583 113.034 407.566 110.197C406.688 107.834 405.674 105.523 404.531 103.275L407.825 106.903H407.436C408.595 107.967 409.606 109.179 410.445 110.506C411.431 111.895 412.312 113.079 412.779 112.307C411.918 111.636 411.165 110.838 410.549 109.94C409.92 109.121 409.348 108.261 408.837 107.366C407.691 105.193 406.251 103.184 404.557 101.396H404.946C402.06 97.9463 399.62 94.1514 397.683 90.1C396.194 86.7212 393.535 83.9829 390.187 82.3803C391.406 83.7699 392.47 87.6555 391.173 87.1923C390.576 84.619 386.348 80.2445 387.334 79.6784L388.968 81.0165C386.877 77.8858 384.422 75.0098 381.654 72.4477C379.553 72.2161 379.89 74.1203 376.466 71.6757C370.189 63.7759 381.654 72.4219 377.685 66.5292C375.221 64.5221 372.497 62.7981 369.904 60.9711L369.255 58.6037C367.005 56.1162 364.501 53.8656 361.785 51.8876C359.227 49.9916 356.54 48.272 353.744 46.7412L349.568 44.3481L345.236 42.0322C342.305 40.4368 339.4 38.6098 336.236 36.7056C336.677 35.7792 339.374 36.4225 342.202 37.8378C344.79 39.1171 347.301 40.5433 349.724 42.1094C348.01 39.9338 345.819 38.1738 343.317 36.9629C340.535 35.5453 337.925 33.8188 335.536 31.8165C334.447 31.0275 333.283 30.3466 332.06 29.7836C331.076 29.3663 330.05 29.0557 328.999 28.8572C327.235 28.5227 326.12 28.8573 326.25 29.5263C319.713 26.7472 322.437 25.9495 321.814 25.1775C318.65 26.2326 311.154 21.3949 305.655 19.7223L305.914 18.41L301.531 17.3807L297.069 16.5572C299.17 17.4836 296.836 17.8696 296.551 18.6416L294.476 17.7152C296.202 19.2545 298.209 20.4512 300.389 21.2405C302.62 22.1403 304.897 22.9219 307.211 23.5822C309.555 24.1939 311.825 25.0567 313.981 26.1554C316.111 27.2144 317.986 28.715 319.48 30.5556C316.886 29.7579 319.765 31.9966 317.12 31.2504C315.2 30.1439 314.889 29.7836 314.915 29.2175C313.229 29.5777 309.727 28.8573 313.851 30.8644C313.151 32.0481 310.817 31.4562 307.886 30.3497C304.955 29.2432 301.349 27.7765 298.263 27.0046C296.265 25.2805 297.744 25.0746 300.052 25.4606C302.361 25.9713 304.7 26.3323 307.056 26.5414C304.747 25.7437 302.439 26.0524 299.482 23.9681L301.064 22.3985C292.375 20.1598 298.133 23.1962 295.539 24.3027C292.375 25.9495 288.25 21.3434 285.838 20.8545L288.432 21.189C282.207 18.307 280.132 19.748 274.296 18.024L271.935 15.6823C274.31 17.1953 277.162 17.7906 279.95 17.355C281.898 16.8344 283.969 17.0262 285.786 17.8953C280.599 15.3221 281.558 14.37 284.256 14.1642C286.954 13.9583 291.493 14.1642 293.464 14.1642C289.387 13.265 285.516 11.6154 282.051 9.30076C278.239 9.32267 274.459 8.60589 270.924 7.1907C267.384 5.90238 263.573 5.53042 259.848 6.10995C256.087 5.08066 263.454 5.26081 259.433 4.48884C251.775 2.80814 243.916 2.21037 236.089 2.71331C232.017 2.35306 232.769 1.47815 231.679 0.526054C227.377 0.0122232 223.037 -0.125555 218.71 0.114329C214.846 0.47458 211.344 1.01498 207.816 1.58109C204.289 2.14719 200.709 2.99637 196.715 3.63967C194.718 4.02566 192.591 4.38589 190.308 4.66895L182.89 5.59531L185.847 3.94845C181.333 4.48882 177.417 4.69468 175.471 6.67606C173.623 6.15669 171.665 6.15669 169.817 6.67606C167.463 7.20562 165.162 7.94633 162.943 8.88903C160.63 9.81664 158.266 10.6156 155.862 11.2822C153.766 12.0081 151.529 12.2457 149.326 11.9769C146.132 12.6104 143.152 14.0357 140.662 16.1198C138.637 17.9619 136.4 19.5598 133.996 20.8803C133.659 20.134 135.19 17.8181 131.403 19.0533C120.599 24.2981 110.196 30.3183 100.277 37.0658C89.8754 44.1537 80.0808 52.0804 70.9927 60.7652C71.2488 60.0094 71.6644 59.3163 72.2118 58.7324C68.9771 61.6366 65.9114 64.7209 63.0297 67.9703C60.4358 71.3155 57.5567 74.5577 55.2482 77.9286C50.32 84.619 45.9105 91.1293 41.3194 96.7132C40.7488 97.9741 39.4519 100.393 38.7256 102.297C37.9994 104.201 37.6622 105.719 38.8813 105.05C40.9044 102.477 42.6682 103.043 43.4723 103.867C42.528 105.775 41.4353 107.608 40.2041 109.348C39.6903 110.069 38.9661 110.617 38.129 110.917C36.9618 111.381 35.8465 111.303 33.9271 115.086C32.1114 115.549 32.3189 114.16 32.8377 112.513C33.3564 110.866 34.1086 108.962 33.0711 108.293C31.3073 112.101 29.8807 116.012 28.4023 119.949C24.33 125.688 22.7218 132.661 19.1942 137.73C20.543 135.363 17.6639 136.109 20.4392 132.352C20.2577 133.047 20.6208 132.687 20.4392 133.382C21.6958 131.15 22.5887 128.736 23.0849 126.228C23.3101 123.819 24.0061 121.477 25.1341 119.332C24.2522 121.185 23.474 123.295 22.5402 125.456C21.6065 127.618 20.7246 129.779 19.8167 131.966C18.1567 136.392 16.2113 140.561 14.7588 143.906C17.0673 143.083 13.436 149.696 13.8769 152.012L13.5656 152.372C14.3179 152.655 13.5656 157.081 13.3322 158.445L10.5049 159.448C9.8565 162.562 11.9056 158.959 11.2571 162.022C10.5903 165.965 9.72462 169.873 8.66333 173.73C7.49612 178.284 6.06952 182.324 4.72074 182.685C4.46329 184.776 4.38521 186.885 4.4873 188.989C4.53455 191.119 4.36947 193.248 3.99447 195.345C3.42384 194.83 3.34602 193.441 3.0607 193.209C0.830021 205.02 0.933773 219.791 0 231.19L0.311265 234.587L0.752208 237.855C1.06347 239.99 1.34879 242.023 1.68598 243.927C2.31804 247.326 3.26446 250.66 4.51324 253.886C4.04635 251.467 3.76103 244.262 5.62858 248.559C6.95142 250.875 6.92549 254.683 8.04082 258.312C6.6661 257.643 8.48177 267.987 6.35484 260.653C3.76103 263.227 10.1159 276.659 7.54799 277.148C8.64155 279.427 9.5102 281.805 10.1418 284.25C11.0105 287.234 12.2938 290.083 13.9547 292.716C13.0988 293.951 11.3609 287.363 10.6087 287.569L12.4762 292.175L11.724 292.433C12.3869 295.739 13.8764 298.827 16.0557 301.413C17.7328 303.16 19.2115 305.084 20.4652 307.152H20.0761L21.9955 310.471L18.2086 307.203C20.8024 312.684 23.8371 314.923 27.235 320.532L26.8978 321.459C27.7279 322.539 28.506 323.646 29.4917 324.701C29.0507 324.161 28.6616 324.109 28.7135 324.572C30.7907 326.367 32.5449 328.498 33.9011 330.877C35.2489 333.179 37.0066 335.219 39.0888 336.898C40.23 339.265 39.0888 342.636 42.7201 344.618L40.1263 345.518C39.1833 344.365 38.3984 343.093 37.7919 341.736C37.5548 341.168 37.3977 340.57 37.325 339.96C37.1693 339.008 36.91 338.056 34.0568 334.325C35.3459 340.121 37.8175 345.594 41.3194 350.407C45.387 356.546 49.9405 362.354 54.937 367.777C56.9342 369.552 59.1389 371.662 61.3437 373.927C63.5484 376.191 65.7532 378.661 68.0357 380.771C70.0022 382.773 72.1273 384.614 74.3905 386.278C75.8893 387.458 77.6818 388.214 79.5782 388.465L77.7366 388.929C81.8348 393.2 86.2962 397.086 90.7056 401.023C103.156 409.437 116.229 418.135 127.486 421.042L129.82 423.487C133.659 423.948 137.451 424.731 141.155 425.829C143.308 426.395 145.513 427.064 147.795 427.733L154.695 429.508C156.915 430.123 159.166 430.621 161.439 431.001C163.644 431.413 165.745 431.747 167.664 431.979C170.775 432.412 173.944 432.166 176.95 431.258C180.037 432.519 179.544 432.828 178.013 433.085C176.598 433.081 175.187 433.245 173.811 433.574C175.146 433.954 176.522 434.17 177.91 434.217H182.708C185.648 434.027 188.586 434.622 191.216 435.941C191.216 436.327 189.452 436.327 188.129 436.302C186.806 436.276 185.873 436.302 187.351 436.713C190.645 438.669 192.539 435.838 196.3 438C195.496 437.074 197.182 436.533 199.75 435.993C202.719 435.464 205.733 435.214 208.75 435.247C208.22 435.257 207.696 435.142 207.22 434.912C206.442 433.703 210.747 434.114 213.134 433.96C212.9 434.199 212.586 434.346 212.252 434.372C227.963 433.781 243.588 431.792 258.94 428.428C274.611 424.897 289.966 420.103 304.851 414.095L300 417.44C302.349 415.992 304.813 414.735 307.367 413.683C309.961 412.474 312.554 411.496 313.67 411.11L313.151 411.521C314.883 411.273 316.544 410.669 318.027 409.746C319.057 409.086 320.006 408.308 320.855 407.43C322.525 405.568 324.82 404.37 327.313 404.059L326.354 404.96C330.659 402.206 334.472 400.637 338 398.63C339.815 397.652 341.579 396.648 343.369 395.465C345.213 394.08 346.947 392.557 348.557 390.91C350.614 389.583 352.805 388.47 355.093 387.591C356.906 387.053 358.648 386.301 360.281 385.352C362.302 383.837 363.696 381.64 364.197 379.176L362.511 380.617C359.788 381.235 365.105 376.423 367.076 373.721C363.808 373.721 362.2 370.427 354.289 374.827C352.822 376.592 350.719 377.718 348.427 377.967C345.977 378.33 343.697 379.425 341.89 381.106C341.19 383.679 338.804 384.708 336.158 385.995C333.116 387.002 330.462 388.916 328.558 391.476C329.388 389.598 327.676 390.55 326.094 391.142C324.512 391.733 323.163 392.222 324.953 389.778C323.397 389.778 320.751 391.991 317.768 394.307C315.108 396.562 311.983 398.213 308.612 399.144C309.157 398.372 308.767 398.064 309.701 397.24C303.943 401.537 304.721 398.141 300.104 400.457L301.168 402.309C299.611 403.802 298.418 402.644 296.94 403.699C298.34 403.364 301.531 403.081 300.415 404.522C298.538 406.051 296.504 407.379 294.346 408.485C294.009 407.739 295.565 406.658 296.577 405.912C296.577 405.912 291.389 408.048 290.533 407.198C292.467 406.049 294.216 404.618 295.721 402.953C288.717 405.346 294.891 402.567 290.974 402.438C292.867 404.445 285.423 405.706 281.896 407.584C281.195 406.812 284.489 406.324 285.086 405.243C281.766 404.611 278.328 405.275 275.489 407.096C272.351 409.184 268.823 410.627 265.114 411.341C265.114 410.981 266.307 410.415 266.851 410.158C265.004 410.916 263.013 411.267 261.015 411.187C259.392 411.076 257.778 411.501 256.424 412.396C252.093 412.834 255.102 409.823 248.643 411.007C249.81 412.113 247.865 412.319 245.66 412.577C243.455 412.834 240.965 412.963 241.017 414.352C239.253 413.992 237.515 413.734 235.829 413.297C231.446 415.124 237.464 417.826 228.515 418.752C220.318 417.98 229.086 414.223 224.313 412.911L222.419 414.455L218.503 413.477L219.073 413.348C216.739 413.837 212.485 413.348 212.511 412.474C212.537 411.599 215.416 411.907 215.779 411.29C212.58 411.541 209.362 411.12 206.338 410.055C204.557 409.598 202.73 409.339 200.891 409.283C199.366 409.1 197.829 409.496 196.585 410.389C195.248 409.868 193.879 409.43 192.487 409.077C191.164 408.639 190.204 408.125 190.593 407.533C189.452 408.254 186.962 407.687 184.368 407.018C182.185 406.192 179.881 405.723 177.546 405.629C178.065 405.063 175.471 403.596 173.163 403.416C175.964 404.883 173.967 405.063 171.684 405.474C169.85 404.336 167.857 403.469 165.771 402.901C163.54 402.026 161.543 401.074 161.335 399.865C156.978 399.71 157.911 401.666 156.511 402.85C154.384 400.637 146.135 397.703 148.574 395.979C150.571 397.137 155.266 399.402 154.928 397.497C151.167 395.079 152.905 397.497 149.43 396.417C149.845 396.134 147.77 394.024 148.677 393.612C146.099 392.805 143.639 391.663 141.363 390.215C143.256 391.708 142.4 391.785 141.363 391.785C140.325 391.785 139.028 391.528 140.092 392.634C141.7 392.763 143.386 392.763 144.994 392.814C150.182 394.924 145.513 394.564 147.199 395.979C138.043 392.557 138.769 395.593 129.846 392.454C128.497 391.193 126.111 389.057 125.307 388.517C128.082 389.958 128.653 387.616 127.356 386.381C126.114 386.205 124.921 385.776 123.855 385.12C122.895 384.46 122.023 383.682 121.261 382.804C119.89 381.097 118.418 379.473 116.851 377.941C119.575 380.514 117.163 380.514 115.71 380.36C107.695 376.397 113.376 377.632 110.834 374.57C108.306 372.751 105.897 370.774 103.623 368.652C101.47 366.722 99.7321 364.637 97.9164 362.759C96.1008 360.88 94.4667 358.976 92.7288 357.201C90.991 355.425 88.9937 353.727 86.8927 352.054C87.5671 353.778 88.2156 355.58 88.9937 357.201L91.5875 356.943C93.4032 360.855 87.9562 359.697 85.3105 358.976C85.3105 358.101 80.4082 353.341 83.0798 354.576C81.3938 353.135 79.5782 351.797 77.8922 350.304C77.8922 351.668 81.1604 354.525 78.3072 352.878C77.2438 350.845 73.1196 345.312 76.8547 347.731C75.7653 346.367 74.5207 345.132 73.1455 344.052C71.9524 343.151 71.0705 342.662 70.837 343.357C67.3095 338.879 73.1196 342.302 75.4021 343.614C72.6268 340.14 74.4684 339.42 75.6615 340.14L71.7708 335.457C73.0158 336.177 73.6643 335.663 74.8834 336.358C73.9952 334.811 72.8357 333.434 71.4595 332.292C70.1925 331.179 69.3423 329.673 69.0473 328.02L66.7907 327.737C61.9143 317.727 62.7443 318.602 57.9717 309.57L57.6864 311.68C56.5806 310.69 55.6969 309.48 55.0926 308.129C54.666 307.304 54.3686 306.419 54.2107 305.505C53.9329 302.445 52.9572 299.489 51.3575 296.859L49.2824 293.436C48.6599 292.433 48.1412 291.558 47.6224 290.863C46.6108 289.551 45.7549 289.062 45.0286 289.782C44.4013 288.959 43.9959 287.99 43.8506 286.968C43.7054 285.946 43.8252 284.904 44.1986 283.941C42.331 281.805 38.4922 276.865 38.6997 272.362C40.0485 274.935 41.086 277.096 42.2532 279.567C43.8354 278.254 40.0744 270.612 39.9966 266.109C39.2444 264.719 37.6622 261.734 36.0799 258.389C34.4977 255.044 32.7858 251.313 31.6705 248.585C30.3476 251.338 27.9094 250.772 25.6787 245.729C26.3531 246.063 26.431 244.262 26.4569 241.946C26.485 239.607 26.6322 237.271 26.8978 234.947C27.5463 235.796 28.091 233.763 28.7135 232.374C29.336 230.984 29.8029 230.547 30.2698 234.226C29.8029 236.414 28.1947 237.546 29.0248 240.454C29.7677 238.968 30.3168 237.394 30.6589 235.77L32.1892 228.874C33.2691 230.452 33.8391 232.319 33.8233 234.226C33.2008 233.017 32.8636 233.815 32.3967 233.969Z" fill="#C4A87E"/>
<path opacity="0.4" d="M143 210C101.027 210 67.0055 224.302 67.0055 241.946C66.7621 264.218 74.6586 285.835 89.2561 302.858C103.001 318.404 122.013 324 143 324C163.987 324 182.999 318.455 196.744 302.858C211.341 285.835 219.238 264.218 218.995 241.946C218.995 224.302 184.973 210 143 210ZM143 261.559C100.421 261.559 78.1439 246.972 78.1439 241.946C78.1439 236.92 100.421 222.307 143 222.307C185.579 222.307 207.935 236.894 207.935 241.946C207.935 246.998 185.553 261.559 143 261.559Z" fill="#C4A87E"/>
<path opacity="0.4" d="M297.5 210C255.803 210 222.005 224.302 222.005 241.946C221.764 264.218 229.608 285.835 244.11 302.858C257.791 318.404 276.651 324 297.5 324C318.348 324 337.235 318.455 350.89 302.858C365.402 285.841 373.247 264.22 372.994 241.946C372.994 224.302 339.223 210 297.5 210ZM297.5 261.559C255.227 261.559 233.071 246.972 233.071 241.946C233.071 236.92 255.227 222.307 297.5 222.307C339.772 222.307 361.955 236.894 361.955 241.946C361.955 246.998 339.851 261.559 297.5 261.559Z" fill="#C4A87E"/>
<path opacity="0.4" d="M222 102C180.579 102 147.005 116.553 147.005 134.506C146.765 157.169 154.558 179.165 168.963 196.487C182.528 212.305 201.289 218 222 218C242.711 218 261.472 212.358 275.037 196.487C289.442 179.165 297.235 157.169 296.995 134.506C296.865 116.553 263.291 102 222 102ZM222 154.464C179.981 154.464 157.997 139.621 157.997 134.506C157.997 129.392 179.851 114.628 222 114.628C264.149 114.628 286.003 129.471 286.003 134.612C286.003 139.753 263.889 154.464 222 154.464Z" fill="#C4A87E"/>
</svg>
