<svg id="__1" data-name="_1" xmlns="http://www.w3.org/2000/svg" viewBox="0 0 482.45 170.08"><defs><style>.cls-1{fill:#563d1b;}.cls-2{fill:#231815;}</style></defs><path class="cls-1" d="M132,185.21c-15.94,0-28.86,5.52-28.86,12.33a35.86,35.86,0,0,0,8.45,23.51c5.22,6,12.44,8.16,20.41,8.16s15.19-2.14,20.41-8.16a35.86,35.86,0,0,0,8.45-23.51C160.81,190.73,147.89,185.21,132,185.21Zm0,19.9c-16.17,0-24.63-5.63-24.63-7.57S115.78,190,132,190s24.63,5.63,24.63,7.58S148.12,205.11,132,205.11Z" transform="translate(-46.04 -145.19)"/><path class="cls-1" d="M160.81,226.92c-15.94,0-28.86,5.52-28.86,12.33a35.86,35.86,0,0,0,8.45,23.51c5.23,6,12.44,8.16,20.41,8.16s15.19-2.14,20.41-8.16a35.81,35.81,0,0,0,8.45-23.51C189.67,232.44,176.76,226.92,160.81,226.92Zm0,19.9c-16.16,0-24.63-5.63-24.63-7.57s8.47-7.58,24.63-7.58,24.64,5.63,24.64,7.58S177,246.82,160.81,246.82Z" transform="translate(-46.04 -145.19)"/><path class="cls-1" d="M101.34,226.92c-15.94,0-28.86,5.52-28.86,12.33a35.86,35.86,0,0,0,8.45,23.51c5.22,6,12.44,8.16,20.41,8.16s15.19-2.14,20.41-8.16a35.86,35.86,0,0,0,8.45-23.51C130.2,232.44,117.28,226.92,101.34,226.92Zm0,19.9c-16.17,0-24.63-5.63-24.63-7.57s8.46-7.58,24.63-7.58S126,237.3,126,239.25,117.5,246.82,101.34,246.82Z" transform="translate(-46.04 -145.19)"/><path class="cls-1" d="M272.5,232.15c0,1.14,1,2.1,3,2.87q-3.17,11.58-5.48,14.75v.46q4.47.71,4.47,2v1.41q-1.1,2.41-17.43,9.07c0,1.24-.33,1.86-1,1.86l1,2.42H255.6q-13.48-2.62-13.49-12.9a123.35,123.35,0,0,1-2.47-12.84h2.47c0,1.18,1.83,2.45,5.48,3.83q4.53,10.47,8,10.47Q265,247.86,265,244v-.9q0-1-1.47-1-5.48,2.37-8,2.37h-3q-5-.66-5-4.28,2.53,0,22.44-8.11ZM281,194q10.49,3.22,10.48,8.11v1.41Q286,211.25,286,216.89q3,2,3,4.78,0,1.52-9,3.33a68.5,68.5,0,0,0-7-.46H268.5l-5.95,6.15q-5.69,0-10-32.84h.48l7.48,4.74a159.39,159.39,0,0,0,20-8.56Zm-18.43,13.34v1.41q.52,8.26,5,9.57,7.95,0,8-10.47a4.84,4.84,0,0,1,.47-2.42H268.5Q262.54,205.46,262.55,207.37Zm41.87,24.33q10.44,2,10.43,4.28a99,99,0,0,1-5.42,13.79c1.29,0,1.95,1,1.95,2.87v1.41q-1.85,2.37-8.49,4.79c0,.64-.15,1-.47,1a42.54,42.54,0,0,1-9.95-1.41,32,32,0,0,0-1.48,5.19h-.53q-4.63,0-11.95-11.38Q278,247.41,278,245V239.3c.25-4.13.91-6.19,2-6.19h.53q0,3.12,5.48,7.15Q289,240.26,304.42,231.7Zm-17,15.2a6.91,6.91,0,0,0,3,5.74q12.44-2.16,12.43-6.69a25.45,25.45,0,0,0,.53-5.24H302Q294.63,240.71,287.46,246.9Z" transform="translate(-46.04 -145.19)"/><path class="cls-1" d="M385.75,182.8c5,1.11,7.48,2.38,7.48,3.82v1q0,3.12-3,12.39,9,1.82,9,3.32v3.33q-17,0-17,7.65-8.43,6.09-8.43,10,45.46,13.75,48.3,20l-2,2.36q-19.23-2.86-33.87-10.47-7.95-5.7-13.95-6.65l-1,1.41v.5l1-.5h1.52a3.58,3.58,0,0,1,3.48,2.37v2.87a25.55,25.55,0,0,1-.48,4.78,16.51,16.51,0,0,1,.48,4.28v1.92h.47a31.27,31.27,0,0,1,5-3.38q5.47,1.82,5.47,5.29v1c-7.12,2-10.78,3.57-10.95,4.78v22.81c-1.76.34-2.76.5-3,.5a31.09,31.09,0,0,1-10-7.15q.74-2.36,4.95-2.36h1V256.22l-13.43,3.32c0-1-.84-1.46-2.53-1.46v-.95q1.32-2.48,16-6.2V238.09l-.47-4.78h-.53q-5.31,4.47-18.91,21.95-12.31,10-18,10,30.45-33.58,30.45-43.35h-.58q-6.44-1.87-6.43-6.25a28,28,0,0,1-6.95,1q-7.32,0-9-9.52l2.48-.5,5,3.37c4-1.48,6-2.6,6-3.37a64.28,64.28,0,0,1-1.53-12.34v-.5h2.47q6,4.58,6,10v.95h.47Q382.54,182.85,385.75,182.8ZM352.88,261h.53q1.95,0,4.47,8.11,0,2.67-4,7.65-6.48-4.17-6.48-7.15Q351.36,261,352.88,261Zm17-60v2.87l2.48-.51h2.47v1q-5.69,6.15-10,6.14v2.87c0,3.66,1.66,5.73,5,6.2h1q6.48-10.08,6.48-11.89c-1.34,0-2-.48-2-1.46v-.45c3-1.78,4.47-3.05,4.47-3.83a26.77,26.77,0,0,0,3-11.93h-2A40.23,40.23,0,0,0,369.84,200.93Zm18.91,57.66q8,2.82,8,6.69v.91q0,2.42-11,3.37v-.95Q385.75,258.59,388.75,258.59Z" transform="translate(-46.04 -145.19)"/><path class="cls-1" d="M447.27,222.13h1.47a8.21,8.21,0,0,1,4.53,7.65v1q-5,4.33-5,7.6c.63.1.94.42.94,1v1.46l-9.9,2.87.48,2.32v3.37h-4q-2.41,0-9.48-17.62h2.06q3.15,0,9.43,6.19h2.47q3-5,3-7.6-6,2.82-8.95,2.82h-1a10,10,0,0,1-1.48-4.79Zm43.82-22.81q8,2.46,8,4.73-7.57,26.23-12.95,26.24a8.5,8.5,0,0,1-3-1,125.16,125.16,0,0,1-18.43,7.65l-.47,2.87q0,13.8,9.42,13.8,2.27,0,11,.5Q519,252.3,519,247.86V238.8h2.53q0,1.65,7,12.43,0,8.52-36.87,10.48-32.4-2.41-32.4-12.39a42.06,42.06,0,0,1-1-8.56v-20.5l.48-1q7.47,1.65,7.47,4.78l-1,6.7q8.32,0,9.49-10.48a4.45,4.45,0,0,0,.52-2.41c-.35-1.92-.86-2.87-1.53-2.87q-2.62,0-7.48,3.82H464.7a7.34,7.34,0,0,1-4-6.64ZM478.66,210.7a68.61,68.61,0,0,1,1.95,12.89h1.52q2.16,0,5.48-13.8v-1.91h-.47Z" transform="translate(-46.04 -145.19)"/><path class="cls-1" d="M191.55,287.1l.82-1A4.25,4.25,0,0,0,191.55,287.1Z" transform="translate(-46.04 -145.19)"/><path class="cls-1" d="M190.27,287.51l-.08.07S190.25,287.56,190.27,287.51Z" transform="translate(-46.04 -145.19)"/><path class="cls-1" d="M103.35,298.06a2.24,2.24,0,0,0,1,.15C103.75,298.05,103.48,298,103.35,298.06Z" transform="translate(-46.04 -145.19)"/><path class="cls-1" d="M48.75,252.78a.7.7,0,0,0,.2,0C48.87,252.68,48.8,252.66,48.75,252.78Z" transform="translate(-46.04 -145.19)"/><path class="cls-1" d="M200.21,274.58l-.35.48C199.94,275.25,200.22,274.76,200.21,274.58Z" transform="translate(-46.04 -145.19)"/><path class="cls-1" d="M119.51,303.44a.35.35,0,0,0,.16-.16A.8.8,0,0,0,119.51,303.44Z" transform="translate(-46.04 -145.19)"/><path class="cls-1" d="M215,229.36c0-.18-.06-.38-.09-.57A2,2,0,0,0,215,229.36Z" transform="translate(-46.04 -145.19)"/><path class="cls-1" d="M60.52,236.13a.92.92,0,0,0-.26-.41C60.32,236,60.41,236.16,60.52,236.13Z" transform="translate(-46.04 -145.19)"/><path class="cls-1" d="M58.59,236c.8,3.4,1-.81,1.67-.31-.2-.9-.12-2.83-.54-1.91a3,3,0,0,0,.36-1.63,13.66,13.66,0,0,0-.13-2,6.23,6.23,0,0,1,.24-3.7c-.11-.1-.57,1-.77-.37a3.08,3.08,0,0,1,.37-1.76,5,5,0,0,0,.57-.83,7,7,0,0,1-.15-2c0-.8.15-1.48.21-1.32-.07-1.38-1.38,1.23-1.56-.72-.6-1.43.46-3,.56-4.55.92-1.66,0,1.87.09,2.66l.37-2.56c.11-.85.31-1.69.46-2.54.78-1.35.57.86.09,2.29a8.88,8.88,0,0,0,.94-3,4.37,4.37,0,0,0-.08-2.23,15.8,15.8,0,0,1,1.27-2.93c-.09,1.26,1,1.56.62,3.38-1,2.88-.48-1.32-1.43,1.11l.57.41c-.66,1-.39,2-.66,3.13-.33.6-.19-.2-.17-.66-.28,1.05-.52,2-.71,2.87a5.13,5.13,0,0,0,0,2.61c.13-.35.24-.72.35-1.1s.23-.78.33-1.19c.21-.8.34-1.65.52-2.43.39-1.56.69-2.94,1.28-3.41l.42-2.88.56-2.87c-.29-.13-1.47,1.6-1.32-.12,1-.36,2-1.79,3-3.78-1.15.38.87-3.56-.24-2.87a1.54,1.54,0,0,1-1.08,1.41c.92-2-.59-.62-.09-1.74,1-1.8,1.13-1.67,1.22-1.56s.24.24,1.32-1.42a20.49,20.49,0,0,1-.28,2.21,24.7,24.7,0,0,1-.64,3.09c.42,0,.88-2,1.7-2.56-1,.9-.29-1.16-1-.34,1.15-3,2.32-6.61,4.44-9.91.33.63-.38,2.12-1,3.41s-.86,2.48.08,2.37c.79-1.68.31-2,1.23-3.19a6.59,6.59,0,0,0,2-2.23c.35-.52.71-1.09,1.07-1.66a17.71,17.71,0,0,1,1.18-1.59l-1,.61a11.64,11.64,0,0,1,2.54-3l-.08.33.58-1c.15-.1.2-.1.24-.07.52-1.19,3-3.14,4.59-4.86-.2-.23-.66.13-1.14.68a16,16,0,0,1-1.43,1.61c-.16.06-.68.41-1.1.63s-.73.32-.52-.23a28.19,28.19,0,0,0,2.64-3.09,24,24,0,0,1,3.07-3.1c-.32.16-.64.34-1,.53.54-1,1.86-1.75,3.1-2.78,1.31-.67,1-.18.57.38s-.93,1.25-.14.85c-.55,1.15-2.49,1.86-2.21,2.68.64-.16,1.3-.29,1.94-.42a4.21,4.21,0,0,1,1.72-1.45,7.91,7.91,0,0,0,1.69-.92l-1.13.33c-.21-.69.94-.87,1.41-1.09l-1.17-.39a6.88,6.88,0,0,0-1.64,1.43,2.77,2.77,0,0,1-1.48,1,11.18,11.18,0,0,0,1.72-2.17,7.94,7.94,0,0,1,2.33-2.2c.34.23-.5.5-.63,1A6.56,6.56,0,0,0,91,169.26,7.21,7.21,0,0,1,93,167.83c-.84.82-2.16,2.12-.67,1.8l.5-1.2c.82-.39.66.08,1-.09,1.19-.51-.64-.53,1.23-1.37.33,0,1-.2.82.09,2.07-1.08.88-.73,2.67-2.06-1.75.88-2.34-.09-.54-1.14,2.68-1.16,4.31-2.52,6.53-2.33l1.05-.93c-.56.93,1.83-.35,2.75-.52.26.32-.78.66-1.83,1.06s-2.08,1-1.87,1.54c1.8-.56,1.16.1.72.64,1.84-.83.4-1.12,1.08-1.9.11.3,3.35-1,2.4,0,1.66-.48,1.75-1.28,3-1.5a1.44,1.44,0,0,0,0,1.15c.08-.3,1.73-.41,2-.43-.32-.08.44-.77-1-.23.22-.68,3.44-.79,3.26-1.28.14.32,1,.23,1.92.05l1.52-.29a6.92,6.92,0,0,1,1.39-.09c-.18-.8-.9-.59-1.64-.26s-1.52.7-1.9.07c2-1,7-1.07,10.46-1.88,3,.24,0,.63.64,1.22a15.06,15.06,0,0,1-1.71.13l-1.29,0a11.42,11.42,0,0,0-2.71.27c.64,0,1.39,0,2.17,0s1.6-.14,2.41-.17a30.07,30.07,0,0,0,4.07-.54c2.83,0,3,1.75,6.38,1.63-.39-.57-.3-.72-1.34-1a11.87,11.87,0,0,1,2.92.32c.64-.26-1.46-.59-.07-.72.52.17,1.64.38,1.37.71l-.23,0a3.83,3.83,0,0,1,2.64.78,2.73,2.73,0,0,0,2.35.41c-.17-.31-.82-.12-1.45-.42-.45-.52,1.36-.73,2.68-.61-.31.32,1.11.29,2,.67.22.38-.34.27-1,.11a4.31,4.31,0,0,0-1.77-.17c.81.23,1.62.39,2.41.67l-.48-.24,2.78.16c-1.89-.32-.69-1,.15-.82,1.82.64,3.6,1.41,3.17,2,.44-.61,2.66.28,4.3.74-1.65-.88,0-.63.58-.62l2.29,1.75c-2.76-1,.32.81-.5.95a2.63,2.63,0,0,1-1.81-.33c-.33-.16-.67-.35-1-.53l-1.05-.51a5.41,5.41,0,0,0,3.17,1.55,11.52,11.52,0,0,1,1.51.3,4.29,4.29,0,0,1,1.52.84c-.13.28-.5.51-1.47-.06a4.09,4.09,0,0,0,1.46.53,5.74,5.74,0,0,1,2.27,1.12c-.29-.41-.87-1.47.79-.83l1.62,1.8c2.16,1.58,1.19-.22,3.27.67l-1-1.24c.27-.23.92.18,1.55.57s1.22.82,1.46.52c-1.13-.86-2.14-.74-3.26-1.73-.1-.92,1.8.67,2.73.81a24.16,24.16,0,0,1,2,1.84c.35.4.61.75,1.33,1.7-.32.49-1.23.16-2.19,0s-1.85-.29-2.07.46c2.49,1.41,5.91,3.85,7,5.43,2.12,1.49,2.54.72,2.71,0a5.91,5.91,0,0,1,1.58,1.72l-1.14-.59c1.31,1,2.28,1.81,3.28,2.65a24.69,24.69,0,0,1,3,3.13c1.38,1.38,1.4.37,1.53-.36l1.4,1.63-.09-.35c.43,0,.89.37,1.35.93s.86,1.31,1.27,1.91c-.25.18-.81-.5-.92-.32a12.15,12.15,0,0,0,2.43,3.45c-.13.08-.46,0-.83-.21A3.62,3.62,0,0,1,193,189c0-.17.11-.17.09-.34l-1.77-1.85a8.18,8.18,0,0,1,1.8,2.9c.24.79.11,1.36-.21,1.53,1.83,2.25-.59-2.43,1.46.35a12.76,12.76,0,0,0,.53,1.65c.2.53.41,1,.64,1.51.44,1,1,1.81,1.4,2.67a15.73,15.73,0,0,1,1,2.43,4.27,4.27,0,0,1,0,2.35l1,1.37c.34.48.66,1,1,1.57s.68,1.17,1,1.83a22.38,22.38,0,0,1,.84,2.17c.3-.1.53.41.76.87s.42.91.76.64a9.35,9.35,0,0,0-1.49-4.23,6.84,6.84,0,0,1-1.32-3.79c-.83-1.2-1.12-.54-1.68-1a10.69,10.69,0,0,1-.63-1.57c-.15-.45-.19-.8-.06-1,.83,1.22,1.19,1.27,1.63,1.39s.84.39,1.6,2.11a4.1,4.1,0,0,0-.48-2.1l-.57-1.4c-.2-.45-.38-.85-.5-1.18.43.24.56-.28.38-1.19a11.68,11.68,0,0,1,1.56,1.58c.54.65,1.06,1.34,1.49,1.79-.42-.26-.28.5-.57.26.39.56.82,1.11,1.19,1.69l1.13,1.75c.07,1.31-.24,1.77-.79,1.26.31,1.07.87,2.46,1.32,3.6s.62,2.09.18,2.21c.88,2.74.3-1,.49-1.35l.11.23c-.28-1-.65-1.93-1-2.9.46-.34.67.52.89,1.47s.41,2,1,2.12c1,0,1.15,1.08,1.11,2.43a11.92,11.92,0,0,0,.05,4c-.62-.73-1.27-1.44-1.89-2.13l.75,2c-.8-1.09-1.71-.9-2.66-2.56.27,1.41.56,3.13.71,4.73.09.8.2,1.57.29,2.24a11.64,11.64,0,0,0,.28,1.72c-.39.77-.81,1.13-1.32.87a5,5,0,0,1,.49,1.88,7.45,7.45,0,0,1-.09,1.65,21.63,21.63,0,0,0-.45,3.28c.59,2.57.66-2.61,1.4-.75-.35.8,0,2.21.11,2.93a9.21,9.21,0,0,1,0-2.32c.09-1,.27-2.22.29-3.18.09,1.43.75,1.24,1.05,1.63.05-.81,0-1.62,0-2.43.43.05.5.8.53,1.67a8,8,0,0,0,.15,2.44c-.78-.71-.8-.31-1.58-1a16.23,16.23,0,0,1-.25,6.94c-.39,1-.3-.89-.53-1.46-.51.45.2,2.07-.48,2.43-.46-.35.05-1.26-.06-2-.21,2-.4,4-.75,5.92-.31,0-.21-1.52,0-2.43a7.16,7.16,0,0,0-.38,2.46,12.51,12.51,0,0,0,.58,2.85,20.1,20.1,0,0,1-1,2.73c-.36.7-.67,1-.82.66,0,.95.4.41.71.47-.72,2.64.2,3.19-.19,4.82l.88-1.07c-1.28,2.45.8.88-.32,3.07a1.75,1.75,0,0,0-1.91-.42c.45.55-.5,1.82-.82,2.78.79-.4-.25,2.26.9.91A10.12,10.12,0,0,1,201,261a4.88,4.88,0,0,0-.63,2.33c.62-1-.25,2.18.52,1.47-.95,2.17-2.32,3.27-2.61,2.4.39-.7,1.19-1.74.7-1.87-.6,1.27-1.12,2.58-1.79,3.81-.78.76-1.55,1.86-2.22,1.65,0,1.55-2.48,3-2.32,4.39a4.4,4.4,0,0,1,1.92-2.42l-.23.63a2.93,2.93,0,0,1,.21-.27c0,.73.05,1.48,0,2.21,1.35-1.23-.49-.7.83-2.8,1.05-.62.77.64.44,1.89s-.76,2.44.19,1.69c1.29-1.41.21-1.72.67-3.25l-.24.33c.5-1.06.9-2.17,1.31-3.26.42.05.18,1.13.18,1.13.51-.93.95-1.64,1.35-2.25s.71-1.15,1.06-1.68.73-1.07,1.11-1.75.79-1.48,1.28-2.52c-.27.25-1.7.59-1.08-1.33.23-1.46.94-1.36,1.43-2.47-.12.72.26,1.57-.48,2.33l.78.23a8.46,8.46,0,0,0,.15,3c.09.67.1,1.48-.84,3.7.22.23,0,1.18-.42,2.34a22.89,22.89,0,0,1-1.91,3.62c.38-.27.73-.56,1.09-.84-.2,1.47-.48,1.46-.79,1.53s-.7.21-1.25,1.94c-.42.16-.88.38-1.35.58a10.4,10.4,0,0,1-1.34.44c-.8.16-1.33,0-1.16-1.05a10,10,0,0,0-1.52,2.31,13.74,13.74,0,0,1-1.36,2.22c-1.49.49-.36-1.12-1.21-1.47a10.79,10.79,0,0,0-1.05,1.94c-.22.52-.18.81.39.54l-2.17,2c-.19-.07.48-.87.76-1.17a7.38,7.38,0,0,0-1.33,1.72,7,7,0,0,0-.87,1.65c.13-.21.53-.85.85-1a18.11,18.11,0,0,0-1.8,3.26c.91-1.64,1.75-1.05,2.63-2.84a1.34,1.34,0,0,1-.57,1.5c1.49-.77,2.42-2.07,3.31-2.18a3.23,3.23,0,0,0-1.41,2.1A13.86,13.86,0,0,0,193,284c.9.51,2.73-3.86,2.58-1.95-.07-.22.17-.67.51-1.17a6.67,6.67,0,0,1,1.11-1.35c.15.17-.06.77-.33,1.49a14.67,14.67,0,0,0-.77,2.07c-2.56,4.14-.53-.54-1.47.16-.36.49-.7,1-1.08,1.46l-1.15,1.42c.35-.19-.41,1.58,1.09-.28a6.89,6.89,0,0,1-1,2.28,7,7,0,0,1-2.1,2.1c-.08.53.83-.52,1.14-.82-.07.5-.93,3,1.29.84-.63.61.67-1.42-.66-.49.75-1,3.19-3.26,2.77-1.88.89-1.23,2.24-3.75,2.89-4.79.58,0-.48.95-.68,1.58l1.2-1.8,1.12-1.85-1.11.72a10,10,0,0,0,2-3.56c.38-1.2.64-2.36,1.13-3.52.51.7-.52,2.52-1,4.16,1.64-.82.13-1.17,1.61-3.32.31-.22.52-.2.64.07l.41-2.18c.37-.49.36-.1.27.15.48-1.78.22-1.89.09-2.11s-.14-.54.73-2.75c-1.59,2.37-.56,2.43-1.78,4.51-1.18.92.45-2.88.39-3.67,1.16-2,2.41-1.69,3-4.65-.46,2,.68.38-.5,3.08-.36,1.66.72-.62,1.24-.76.18-.78-1,.12,0-1.82l.08.12.29-1.79.22-1.82a12.47,12.47,0,0,0,.93-2.4c.21-.85.38-1.74.56-2.58s.33-1.65.52-2.38a5.33,5.33,0,0,1,.83-1.83l-.94.29c.25-1,.47-2.21.68-3.35.1-.57.19-1.12.28-1.62s.1-.95.12-1.32a1.85,1.85,0,0,1,.27,1.23c0,.57-.12,1.27-.19,2a22.79,22.79,0,0,0,.44-9.4,37.25,37.25,0,0,0-1.4,3.56,3,3,0,0,1,.18-2.63,4.9,4.9,0,0,0,.59-3.1c.82,0,.62,1,1.47.29a8.9,8.9,0,0,1-.32-2.38,11.66,11.66,0,0,0-.36-2.49c.4-.38.77-.23,1,.42a8.37,8.37,0,0,1,.35,3.38c-.82,2.33.06,5.1-.87,7,.23-.37.45-.74.66-1.12a27.6,27.6,0,0,1-.29,3.1c-.11.92-.19,1.81-.24,2.86l-.1-.11.58,1.19.24-1.11a12.23,12.23,0,0,1,.34,4.06,6.24,6.24,0,0,0-.06-3.54,21.56,21.56,0,0,1-.87-2.23,13,13,0,0,1,1.25-3.45,4.34,4.34,0,0,0,.45-2.81c.41-.12,1-1.84,1.21-.4,0,1.79-.64,3-.11,3.21.19-1.86.45-1.11.67-3.95-.69-.61-1.19-2.77-1.69-4.78A20.77,20.77,0,0,1,213,232a22.42,22.42,0,0,1,.08-3,10.54,10.54,0,0,0,.54,2.8c.26.72.54,1.11.82.85-.72-1.22.51-4.16-.49-3.51,0-2.46-.4-6.56.42-6.93a11.51,11.51,0,0,1,.31,1.72c0,.57.05,1.14.05,1.7,0,1.11,0,2.18.12,3.17,0-.55.22-1.1.44-.78l0,2.94c.19-1.11.36-1.57.46-2.1a5.65,5.65,0,0,0,.1-.95c0-.4-.05-.91-.12-1.62-.06.18-.18.55-.24.29-.08-.71-.09-1.61-.17-2.33l.8-.16a24.69,24.69,0,0,1-.4-4.46c-.07-.9-.17-1.86-.33-2.83-.07-.49-.17-1-.28-1.46s-.29-1-.46-1.43l.24.31a6,6,0,0,0-1.38-3.09,8.61,8.61,0,0,1-1.82-3.12c.62.84.83.31,1.16,0-.84-1.52-.52-2.56-.82-4.28.15,2-1.23-1-1,.46-.71.34-1.9-2.89-2.45-4.58.62-1.42,2.47,5,2.55,2.06-.54-1.73-1.25-1.92-1-.67-.17-.54-.37-1.14-.57-1.77s-.45-1.27-.65-1.91-.39-1.27-.53-1.85a9.92,9.92,0,0,1-.29-1.54,20.89,20.89,0,0,1-1.91-2.51,5.82,5.82,0,0,0-1.82-1.68c.71,1.23,1.45.93,1.89,2.72-.51-.47-1.05-.92-1.59-1.36a22.32,22.32,0,0,1-1.43-3.2,25.74,25.74,0,0,0-1.17-2.69l1.27,1.41h-.15a6.91,6.91,0,0,1,1.16,1.4c.38.54.72,1,.9.7a4.11,4.11,0,0,1-.86-.92,8.9,8.9,0,0,1-.66-1,10.48,10.48,0,0,0-1.65-2.32h.15a20.88,20.88,0,0,1-2.8-4.39,6,6,0,0,0-2.89-3c.47.54.88,2.05.38,1.87-.23-1-1.86-2.7-1.48-2.92l.63.52a18.63,18.63,0,0,0-2.82-3.33c-.81-.09-.68.65-2-.3-2.42-3.07,2,.29.47-2-.95-.78-2-1.45-3-2.16l-.25-.92a18.89,18.89,0,0,0-2.88-2.61,26.89,26.89,0,0,0-3.1-2l-1.61-.93-1.67-.9c-1.13-.62-2.25-1.33-3.47-2.07.17-.36,1.21-.11,2.3.44a29,29,0,0,1,2.9,1.66,7.07,7.07,0,0,0-2.47-2,15.92,15.92,0,0,1-3-2,7.93,7.93,0,0,0-1.34-.79,5.72,5.72,0,0,0-1.18-.36c-.68-.13-1.11,0-1.06.26-2.52-1.08-1.47-1.39-1.71-1.69-1.22.41-4.11-1.47-6.23-2.12l.1-.51-1.69-.4-1.72-.32c.81.36-.09.51-.2.81l-.8-.36a7,7,0,0,0,2.28,1.37,26.23,26.23,0,0,0,2.63.91,12.89,12.89,0,0,1,2.61,1,6.41,6.41,0,0,1,2.12,1.71c-1-.31.11.56-.91.27-.74-.43-.86-.57-.85-.79-.65.14-2-.14-.41.64-.27.46-1.17.23-2.3-.2s-2.52-1-3.71-1.3c-.77-.67-.2-.75.69-.6a21,21,0,0,0,2.7.42c-.89-.31-1.78-.19-2.92-1l.61-.61c-3.35-.87-1.13.31-2.13.74-1.22.64-2.81-1.15-3.74-1.34l1,.13c-2.4-1.12-3.2-.56-5.45-1.23l-.91-.91a4.44,4.44,0,0,0,3.09.65,3.24,3.24,0,0,1,2.25.21c-2-1-1.63-1.37-.59-1.45s2.79,0,3.55,0a12.88,12.88,0,0,1-4.4-1.89,11.29,11.29,0,0,1-4.29-.82,8.55,8.55,0,0,0-4.27-.42c-1.45-.4,1.39-.33-.16-.63a32.07,32.07,0,0,0-9-.69c-1.57-.14-1.28-.48-1.7-.85a28.52,28.52,0,0,0-5-.16c-1.49.14-2.84.35-4.2.57s-2.74.55-4.28.8c-.77.15-1.59.29-2.47.4l-2.86.36,1.14-.64c-1.74.21-3.25.29-4,1.06a4,4,0,0,0-2.18,0,15.36,15.36,0,0,0-2.65.86,25.89,25.89,0,0,1-2.73.93,5.58,5.58,0,0,1-2.52.27,7.44,7.44,0,0,0-3.34,1.61,13.43,13.43,0,0,1-2.57,1.85c-.13-.29.46-1.19-1-.71a95.29,95.29,0,0,0-12,7,88.5,88.5,0,0,0-11.29,9.21,2.18,2.18,0,0,1,.47-.79,44.38,44.38,0,0,0-3.54,3.59c-1,1.3-2.11,2.56-3,3.87-1.9,2.6-3.6,5.13-5.37,7.3-.22.49-.72,1.43-1,2.17s-.41,1.33.06,1.07c.78-1,1.46-.78,1.77-.46a15.91,15.91,0,0,1-1.26,2.13,1.68,1.68,0,0,1-.8.61c-.45.18-.88.15-1.62,1.62-.7.18-.62-.36-.42-1s.49-1.38.09-1.64c-.68,1.48-1.23,3-1.8,4.53-1.57,2.23-2.19,4.94-3.55,6.91.52-.92-.59-.63.48-2.09-.07.27.07.13,0,.4A9.42,9.42,0,0,0,55,194.13a7.24,7.24,0,0,1,.79-2.68c-.34.72-.64,1.54-1,2.38s-.7,1.68-1.05,2.53c-.64,1.72-1.39,3.34-1.95,4.64.89-.32-.51,2.25-.34,3.15l-.12.14c.29.11,0,1.83-.09,2.36l-1.09.39c-.25,1.21.54-.19.29,1a46.49,46.49,0,0,1-1,4.55c-.45,1.77-1,3.34-1.52,3.48a14.47,14.47,0,0,0-.09,2.45,12.56,12.56,0,0,1-.19,2.47c-.22-.2-.25-.74-.36-.83-.86,4.59-.82,10.33-1.18,14.76l.12,1.32.17,1.27c.12.83.23,1.62.36,2.36a21.86,21.86,0,0,0,1.09,3.87c-.18-.94-.29-3.74.43-2.07.51.9.5,2.38.93,3.79-.53-.26.17,3.76-.65.91-1,1,1.45,6.22.46,6.41a15.2,15.2,0,0,1,1,2.76,13,13,0,0,0,1.47,3.29c-.33.48-1-2.08-1.29-2l.72,1.79-.29.1a7.82,7.82,0,0,0,1.67,3.49,12.81,12.81,0,0,1,1.7,2.23l-.15,0,.74,1.29-1.46-1.27c1,2.13,2.17,3,3.48,5.18l-.13.36c.32.42.62.85,1,1.26-.17-.21-.32-.23-.3-.05a9.36,9.36,0,0,1,2,2.45,8.55,8.55,0,0,0,2,2.34c.44.92,0,2.23,1.4,3l-1,.35a6.54,6.54,0,0,1-.9-1.47,2.6,2.6,0,0,1-.18-.69c-.06-.37-.16-.74-1.26-2.19a16.9,16.9,0,0,0,2.8,6.25A53.81,53.81,0,0,0,67.28,288c.77.69,1.62,1.51,2.47,2.39s1.7,1.84,2.58,2.66a20.31,20.31,0,0,0,2.45,2.14,4.09,4.09,0,0,0,2,.85l-.71.18c1.58,1.66,3.3,3.17,5,4.7,4.8,3.27,9.84,6.65,14.18,7.78l.9.95a26.32,26.32,0,0,1,4.37.91c.83.22,1.68.48,2.56.74l2.66.69a25.38,25.38,0,0,0,2.6.58c.85.16,1.66.29,2.4.38a8.32,8.32,0,0,0,3.58-.28c1.19.49,1,.61.41.71a6.84,6.84,0,0,0-1.62.19,6.54,6.54,0,0,0,1.58.25h1.85a6.35,6.35,0,0,1,3.28.67c0,.15-.68.15-1.19.14s-.87,0-.3.16c1.27.76,2-.34,3.45.5-.31-.36.34-.57,1.33-.78a18.47,18.47,0,0,1,3.47-.29,1.29,1.29,0,0,1-.59-.13c-.3-.47,1.36-.31,2.28-.37a.53.53,0,0,1-.34.16,101.23,101.23,0,0,0,18-2.31A113.87,113.87,0,0,0,163.63,306l-1.87,1.3a19.68,19.68,0,0,1,2.84-1.46c1-.47,2-.85,2.43-1l-.2.16a4.84,4.84,0,0,0,1.88-.69,6.08,6.08,0,0,0,1.09-.9,4,4,0,0,1,2.49-1.31l-.37.35c1.66-1.07,3.13-1.68,4.49-2.46.7-.38,1.38-.77,2.07-1.23a17.46,17.46,0,0,0,2-1.77,13.71,13.71,0,0,1,2.52-1.29,9.13,9.13,0,0,0,2-.87,4,4,0,0,0,1.51-2.4l-.65.56c-1.05.24,1-1.63,1.76-2.68-1.26,0-1.88-1.28-4.93.43a3.41,3.41,0,0,1-2.26,1.22,4.7,4.7,0,0,0-2.52,1.22c-.27,1-1.19,1.4-2.21,1.9a6,6,0,0,0-2.93,2.13c.32-.73-.34-.36-.95-.13s-1.13.42-.44-.53c-.6,0-1.62.86-2.77,1.76a9.26,9.26,0,0,1-3.53,1.88c.21-.3.06-.42.42-.74-2.22,1.67-1.92.35-3.7,1.25l.41.72c-.6.58-1.06.13-1.63.54.54-.13,1.77-.24,1.34.32a13.34,13.34,0,0,1-2.34,1.54c-.13-.29.47-.71.86-1,0,0-2,.83-2.33.5a8.67,8.67,0,0,0,2-1.65c-2.7.93-.32-.15-1.83-.2.73.78-2.14,1.27-3.5,2-.27-.3,1-.49,1.23-.91a5.06,5.06,0,0,0-3.7.72,10.91,10.91,0,0,1-4,1.65c0-.14.46-.36.67-.46a5.32,5.32,0,0,1-2.25.4,2.84,2.84,0,0,0-1.77.47c-1.67.17-.51-1-3-.54.45.43-.3.51-1.15.61s-1.81.15-1.79.69c-.68-.14-1.35-.24-2-.41-1.69.71.63,1.76-2.82,2.12-3.16-.3.22-1.76-1.62-2.27l-.73.6-1.51-.38.22-.05c-.9.19-2.54,0-2.53-.34s1.12-.22,1.26-.46a8.8,8.8,0,0,1-3.64-.48,9.57,9.57,0,0,0-2.1-.3,2.35,2.35,0,0,0-1.66.43,13.35,13.35,0,0,0-1.58-.51c-.51-.17-.88-.37-.73-.6-.44.28-1.4.06-2.4-.2a8.33,8.33,0,0,0-2.63-.54c.2-.22-.8-.79-1.69-.86,1.08.57.31.64-.57.8a8.58,8.58,0,0,0-2.28-1c-.86-.34-1.63-.71-1.71-1.18-1.68-.06-1.32.7-1.86,1.16-.82-.86-4-2-3.06-2.67.77.45,2.58,1.33,2.45.59-1.45-.94-.78,0-2.12-.42.16-.11-.64-.93-.29-1.09a11.79,11.79,0,0,1-2.82-1.32c.73.58.4.61,0,.61s-.9-.1-.49.33c.62.05,1.27.05,1.89.07,2,.82.2.68.85,1.23-3.53-1.33-3.25-.15-6.69-1.37-.52-.49-1.44-1.32-1.75-1.53,1.07.56,1.29-.35.79-.83a3.5,3.5,0,0,1-1.35-.49,5.33,5.33,0,0,1-1-.9,21.16,21.16,0,0,0-1.7-1.89c1.05,1,.12,1-.44.94-3.09-1.54-.9-1.06-1.88-2.25a28.35,28.35,0,0,1-2.78-2.3c-.83-.75-1.5-1.56-2.2-2.29s-1.33-1.47-2-2.16-1.44-1.35-2.25-2c.26.67.51,1.37.81,2l1-.1c.7,1.52-1.4,1.07-2.42.79,0-.34-1.89-2.19-.86-1.71-.65-.56-1.35-1.08-2-1.66,0,.53,1.26,1.64.16,1-.41-.79-2-2.94-.56-2a8.78,8.78,0,0,0-1.43-1.43c-.46-.35-.8-.54-.89-.27-1.36-1.74.88-.41,1.76.1-1.07-1.35-.36-1.63.1-1.35l-1.5-1.82c.48.28.73.08,1.2.35a5.81,5.81,0,0,0-1.32-1.58,2.89,2.89,0,0,1-.93-1.66l-.87-.11c-1.88-3.89-1.56-3.55-3.4-7.06l-.11.82a4.1,4.1,0,0,1-1-1.38A3.55,3.55,0,0,1,67,263.8a7.87,7.87,0,0,0-1.1-3.36l-.8-1.33c-.24-.39-.44-.73-.64-1-.39-.51-.72-.7-1-.42a2.36,2.36,0,0,1-.32-2.27c-.72-.83-2.2-2.75-2.12-4.5.52,1,.92,1.84,1.37,2.8.61-.51-.84-3.48-.87-5.23-.29-.54-.9-1.7-1.51-3s-1.27-2.75-1.7-3.81c-.51,1.07-1.45.85-2.31-1.11.26.13.29-.57.3-1.47a27,27,0,0,1,.17-2.72c.25.33.46-.46.7-1s.42-.71.6.72c-.18.85-.8,1.29-.48,2.42a7.59,7.59,0,0,0,.63-1.82l.59-2.68a3.65,3.65,0,0,1,.63,2.08C58.9,235.63,58.77,235.94,58.59,236Z" transform="translate(-46.04 -145.19)"/><path class="cls-1" d="M200.21,274.58l.21-.28-.38.27C200.17,274.49,200.21,274.51,200.21,274.58Z" transform="translate(-46.04 -145.19)"/><path class="cls-1" d="M78,182.49c.08-.13.18-.4.12-.48A.87.87,0,0,0,78,182.49Z" transform="translate(-46.04 -145.19)"/><path class="cls-1" d="M112,161.28a.71.71,0,0,1-.12-.18C111.87,161.16,111.9,161.22,112,161.28Z" transform="translate(-46.04 -145.19)"/><path class="cls-1" d="M194.09,274.13l.27-.74A3.88,3.88,0,0,0,194.09,274.13Z" transform="translate(-46.04 -145.19)"/><path class="cls-2" d="M449.83,372.17" transform="translate(-46.04 -145.19)"/></svg>